<svg width="154" height="31" viewBox="0 0 154 31" fill="none" xmlns="http://www.w3.org/2000/svg">
<g clip-path="url(#clip0_6510_497)">
<path d="M9.2464 12.8663L15.2025 6.92019L21.1618 12.8694L24.6274 9.40943L15.2025 -0.000244141L5.78072 9.40629L9.2464 12.8663Z" fill="white"/>
<path d="M6.79896 15.3085L3.33334 11.8486L-0.132442 15.3087L3.33317 18.7686L6.79896 15.3085Z" fill="white"/>
<path d="M9.2464 17.7527L15.2025 23.6987L21.1615 17.7498L24.6291 21.2078L24.6274 21.2097L15.2025 30.6192L5.78048 21.2129L5.77563 21.208L9.2464 17.7527Z" fill="white"/>
<path d="M27.072 18.7706L30.5378 15.3105L27.0722 11.8506L23.6064 15.3107L27.072 18.7706Z" fill="white"/>
<path d="M18.7178 15.3079H18.7193L15.2025 11.7969L12.6035 14.3916H12.6033L12.3049 14.6897L11.6889 15.3047L11.684 15.3096L11.6889 15.3147L15.2025 18.8225L18.7193 15.3115L18.721 15.3096L18.7178 15.3079Z" fill="white"/>
<path d="M35.9406 7.41919H43.4783C45.3491 7.41919 46.7637 7.89851 47.7225 8.85716C48.4645 9.5996 48.8353 10.5198 48.8353 11.6175V11.6639C48.8353 12.1278 48.7779 12.5377 48.6624 12.8932C48.5471 13.2492 48.393 13.5696 48.2004 13.8557C48.0083 14.142 47.785 14.3933 47.5311 14.6095C47.277 14.8262 47.004 15.0119 46.7116 15.1662C47.652 15.5222 48.3923 16.0052 48.932 16.616C49.4714 17.2272 49.7415 18.0738 49.7415 19.1561V19.2023C49.7415 19.9447 49.5986 20.594 49.3125 21.151C49.0264 21.7075 48.6166 22.1715 48.0829 22.5428C47.5493 22.914 46.9076 23.1921 46.1576 23.3778C45.4077 23.5633 44.5766 23.6559 43.6645 23.6559H35.9406V7.41919ZM42.7247 13.9834C43.5148 13.9834 44.1422 13.8485 44.6066 13.5776C45.0712 13.307 45.3035 12.87 45.3035 12.2671V12.2206C45.3035 11.6796 45.102 11.2661 44.6994 10.9798C44.2965 10.6937 43.7157 10.5505 42.957 10.5505H39.4254V13.9834H42.7247ZM43.6774 20.5249C44.4673 20.5249 45.0865 20.3822 45.5361 20.0958C45.9852 19.8098 46.21 19.365 46.21 18.7619V18.7157C46.21 18.1744 46.0007 17.7454 45.5826 17.4281C45.1642 17.1116 44.4906 16.9529 43.5611 16.9529H39.4254V20.5251H43.6774V20.5249Z" fill="white"/>
<path d="M54.2307 7.41919H57.809V23.6564H54.2307V7.41919Z" fill="white"/>
<path d="M63.2285 7.41919H66.5273L74.1483 17.4168V7.41919H77.6799V23.6564H74.6364L66.7598 13.3343V23.6564H63.2285V7.41919Z" fill="white"/>
<path d="M88.5127 7.30371H91.8117L98.7823 23.6568H95.0414L93.5543 20.0152H86.677L85.1901 23.6568H81.5418L88.5127 7.30371ZM92.2765 16.8602L90.1155 11.5949L87.9553 16.8602H92.2765Z" fill="white"/>
<path d="M102.645 7.41919H105.944L113.565 17.4168V7.41919H117.096V23.6564H114.053L106.176 13.3343V23.6564H102.645V7.41919Z" fill="white"/>
<path d="M129.974 23.9343C128.78 23.9343 127.673 23.7177 126.651 23.285C125.628 22.8524 124.746 22.2606 124.002 21.5104C123.259 20.7605 122.677 19.8751 122.26 18.8545C121.841 17.8337 121.632 16.7435 121.632 15.5837V15.5375C121.632 14.3776 121.841 13.2915 122.26 12.2785C122.678 11.2657 123.259 10.3764 124.002 9.611C124.745 8.84558 125.636 8.2422 126.674 7.80157C127.711 7.36094 128.858 7.14062 130.113 7.14062C130.871 7.14062 131.564 7.20278 132.192 7.32611C132.819 7.45018 133.388 7.61995 133.9 7.83639C134.411 8.05308 134.883 8.31596 135.317 8.62503C135.75 8.93458 136.153 9.2746 136.525 9.64583L134.249 12.2669C133.613 11.6949 132.966 11.2461 132.308 10.9215C131.65 10.597 130.91 10.4345 130.089 10.4345C129.408 10.4345 128.776 10.566 128.196 10.8289C127.615 11.0918 127.115 11.455 126.697 11.9189C126.279 12.3827 125.954 12.9203 125.721 13.531C125.489 14.1421 125.373 14.7953 125.373 15.491V15.5372C125.373 16.233 125.489 16.8906 125.721 17.5087C125.954 18.1276 126.275 18.6686 126.686 19.1324C127.096 19.5962 127.592 19.9638 128.172 20.2345C128.754 20.5053 129.392 20.6403 130.089 20.6403C131.019 20.6403 131.804 20.4703 132.447 20.13C133.09 19.7902 133.729 19.3261 134.364 18.7382L136.641 21.0347C136.223 21.4833 135.789 21.8855 135.34 22.2407C134.891 22.5967 134.399 22.9019 133.865 23.1573C133.33 23.4122 132.745 23.6059 132.111 23.737C131.475 23.8683 130.763 23.9343 129.974 23.9343Z" fill="white"/>
<path d="M140.852 7.41919H153.097V10.5972H144.384V13.891H152.051V17.0688H144.384V20.4787H153.213V23.6564H140.852V7.41919Z" fill="white"/>
</g>
<defs>
<clipPath id="clip0_6510_497">
<rect width="153.097" height="30.6193" fill="white"/>
</clipPath>
</defs>
</svg>
