<svg width="114" height="30" viewBox="0 0 114 30" fill="none" xmlns="http://www.w3.org/2000/svg">
<path fill-rule="evenodd" clip-rule="evenodd" d="M95.7634 4.19358V22.1993C95.7465 22.4856 95.8652 22.772 96.0688 22.9909C96.2724 23.2099 96.5608 23.3278 96.8492 23.3278H97.1715C97.4768 23.3278 97.7652 23.2099 97.9688 22.9909C98.1724 22.772 98.2911 22.4856 98.2911 22.1993V4.19358H100.395V22.6709C100.395 24.0689 99.2751 25.1974 97.867 25.2311H96.2554C95.5599 25.2311 94.8983 24.9785 94.4063 24.49C93.9143 24.0016 93.6429 23.3615 93.6429 22.6709V4.19358H95.7634ZM110.726 3.99145C112.134 4.02514 113.271 5.33893 113.271 6.75379V8.4213C113.271 8.65711 113.118 8.85923 112.88 8.92661L111.133 9.41507V7.02329C111.133 6.41692 110.624 5.91161 110.013 5.91161C109.403 5.91161 108.894 6.40008 108.894 7.02329V9.01082C108.894 10.2404 109.81 11.8068 109.81 11.8068L112.321 16.6073C113.338 18.5106 113.254 19.9086 113.254 19.9086V22.5699C113.254 23.2604 112.982 23.9342 112.49 24.4395C111.998 24.9448 111.32 25.2143 110.607 25.2311H109.284C107.859 25.1469 106.739 23.9847 106.739 22.5699V19.5886C106.739 19.3527 106.892 19.1506 107.13 19.0832L108.877 18.5948V22.233C108.877 22.8394 109.386 23.3278 110.013 23.3278C110.624 23.3278 111.133 22.8225 111.116 22.1993V19.8244C111.116 18.6116 110.2 16.9947 110.2 16.9947L107.723 12.1942C106.705 10.2909 106.79 8.89292 106.79 8.89292V6.75379C106.79 5.30525 107.961 3.99145 109.437 3.99145H110.726ZM71.0126 3.99145C72.4376 4.05883 73.5572 5.23787 73.5572 6.65273V22.6372C73.5402 24.0352 72.4206 25.1806 71.0126 25.248H69.4009C67.959 25.2311 66.7884 24.0689 66.7715 22.6372V6.63589C66.7715 5.9453 67.0429 5.27156 67.5349 4.76625C68.0268 4.26095 68.7054 3.99145 69.4179 3.97461L71.0126 3.99145ZM46.8384 4.19358L46.3295 5.9453C46.2617 6.18111 46.0581 6.3327 45.8206 6.3327H42.4447V13.0364H45.9393L45.4304 14.7881C45.3626 15.0071 45.159 15.1756 44.9215 15.1756H42.4447V22.9067H46.8384L46.3465 24.6416C46.2786 24.8774 46.0751 25.029 45.8376 25.029H40.3411V4.19358H46.8384ZM84.3465 4.19358C85.8054 4.21042 86.959 5.37262 86.959 6.80432V22.4014C86.959 23.8331 85.7884 25.0122 84.3465 25.0122H80.2751V4.19358H84.3465ZM56.6268 10.8973L58.5608 4.19358H60.7152L57.7126 14.6197L60.7322 25.0459H58.5777L56.6268 18.3253L54.6929 25.029H52.5384L55.5411 14.6197L52.5215 4.19358H54.6759L56.6268 10.8973ZM70.3001 23.3615C70.6054 23.3615 70.8938 23.2268 71.0974 23.0078C71.3009 22.7888 71.4197 22.5025 71.4027 22.1993V7.02329C71.4197 6.7201 71.3009 6.43376 71.0974 6.2148C70.8938 5.99583 70.6054 5.87793 70.3001 5.86108H69.9777C69.3501 5.89477 68.8581 6.40008 68.8581 7.02329V22.1993C68.8581 22.8225 69.3501 23.3278 69.9777 23.3615H70.3001ZM83.7527 22.9236C84.3465 22.9236 84.8724 22.6204 84.8724 21.8119V7.41069C84.8724 6.63589 84.3465 6.3327 83.7527 6.3327H82.3786V22.9236H83.7527Z" fill="white"/>
<path d="M20.6964 14.6707L29.5179 23.4293H26.3964C25.8705 23.4293 25.3446 23.2104 24.9714 22.8398L16.7777 14.6707L25.0054 6.48476C25.3786 6.1142 25.8875 5.89523 26.4304 5.91208H29.5179L20.6964 14.6707ZM4.52946 6.48476C4.15625 6.1142 3.64732 5.89523 3.10446 5.91208H0L8.82143 14.6707L0 23.4293H3.12143C3.64732 23.4293 4.17321 23.2104 4.54643 22.8398L12.7571 14.6539L4.52946 6.48476ZM14.7589 16.6751L6.51429 24.8442C6.14107 25.2148 5.9375 25.7201 5.9375 26.2591V29.3414L14.7589 20.5828L23.5804 29.3414V26.2422C23.5804 25.7201 23.3768 25.1979 23.0036 24.8274L14.7589 16.6751ZM14.7589 12.6663L23.0036 4.49722C23.3768 4.12666 23.5804 3.62136 23.5804 3.08236V0L14.7589 8.75863L5.9375 0V3.08236C5.9375 3.60451 6.14107 4.12666 6.51429 4.49722L14.7589 12.6663Z" fill="#D5D5D5"/>
</svg>
