<svg width="154" height="31" viewBox="0 0 154 31" fill="none" xmlns="http://www.w3.org/2000/svg">
<g clip-path="url(#clip0_6510_526)">
<path d="M5.53025 10.9217C8.5462 10.9217 10.9911 8.4768 10.9911 5.46086C10.9911 2.44491 8.5462 0 5.53025 0C2.5143 0 0.069397 2.44491 0.069397 5.46086C0.069397 8.4768 2.5143 10.9217 5.53025 10.9217Z" fill="#9B9B9B"/>
<path d="M20.2494 10.8891V12.2112H20.968C21.7547 11.2268 22.9942 10.5262 25.0205 10.5262C28.8503 10.5262 31.1568 13.7596 31.1568 18.1247C31.1568 22.4898 28.8359 25.7232 25.0349 25.7232C23.0373 25.7232 21.8841 25.0478 21.1224 24.0346H20.4039V30.9865H16.452V10.8891H20.2494ZM20.2494 18.1247C20.2494 20.4025 21.3272 22.4575 23.7702 22.4575C26.1342 22.4575 27.23 20.5174 27.23 18.1247C27.23 15.732 26.1342 13.8135 23.7702 13.8135C21.32 13.8171 20.2494 15.8434 20.2494 18.1247ZM37.3936 4.89648V25.3747H33.4417V4.89648H37.3936ZM49.3716 24.1173H48.6531C47.78 25.1304 46.5154 25.7232 44.6005 25.7232C41.3348 25.7232 39.4774 23.4706 39.4774 20.909C39.4774 18.66 41.0833 16.0984 45.3586 16.0984H49.2171V15.7392C49.2171 14.2482 48.3728 13.4866 46.6555 13.4866C45.0784 13.4866 44.3203 14.0506 44.2053 15.035H40.2642C40.3504 12.2471 42.9407 10.5334 46.4292 10.5334C50.3416 10.5334 52.9858 12.0782 52.9858 15.9619V25.3567H49.3716V24.1173ZM49.2027 19.5582V18.66H46.1059C44.4173 18.66 43.4042 19.2779 43.4042 20.6C43.4042 21.9222 44.3598 22.5976 45.9657 22.5976C47.8663 22.5976 49.1884 21.3617 49.1884 19.5582H49.2027ZM63.7171 14.859C63.5195 13.8746 62.6393 13.5656 61.3819 13.5656C60.1245 13.5656 59.2694 13.9249 59.2694 14.8015C59.2694 15.5919 59.8334 15.7859 60.8178 15.9835L63.4333 16.3787C66.1637 16.799 68.0499 18.1247 68.0499 21.024C68.0499 23.4419 65.8943 25.7232 61.6334 25.7232C57.2431 25.7232 55.1306 23.8083 54.8073 20.7976H58.7197C58.9173 22.1197 59.9305 22.6838 61.5939 22.6838C63.171 22.6838 64.1087 22.1485 64.1087 21.1066C64.1087 20.1222 63.462 19.7558 62.0286 19.5007L59.2119 19.0516C56.9342 18.6313 55.3282 17.5319 55.3282 15.0566C55.3282 12.5812 57.2144 10.5262 61.4933 10.5262C65.1219 10.5262 67.317 12.2686 67.6295 14.859H63.7171ZM91.6968 16.2385V25.3567H87.7449V16.9966C87.7449 15.0853 87.1234 14.0147 85.5498 14.0147C83.7534 14.0147 82.902 15.3943 82.902 17.2804V25.3567H78.95V16.9966C78.95 15.1104 78.3285 14.0147 76.7549 14.0147C74.8688 14.0147 74.0784 15.6458 74.0784 17.5894V25.3567H70.1264V10.8891H73.9239V12.2112H74.6424C75.361 11.0867 76.5573 10.5262 78.2351 10.5262C79.9129 10.5262 81.1595 11.0867 81.9212 12.2112H82.6397C83.4804 11.0867 84.7953 10.5262 86.5917 10.5262C90.1197 10.5262 91.6968 12.7465 91.6968 16.2385ZM103.542 24.1173H102.823C101.954 25.1304 100.686 25.7232 98.7708 25.7232C95.5087 25.7232 93.6476 23.4706 93.6476 20.909C93.6476 18.66 95.2536 16.0984 99.5324 16.0984H103.387V15.7392C103.387 14.2482 102.543 13.4866 100.826 13.4866C99.2486 13.4866 98.4906 14.0506 98.3792 15.035H94.4524C94.535 12.2471 97.1253 10.5334 100.614 10.5334C104.526 10.5334 107.174 12.0782 107.174 15.9619V25.3567H103.542V24.1173ZM103.373 19.5582V18.66H100.276C98.5876 18.66 97.5744 19.2779 97.5744 20.6C97.5744 21.9222 98.5337 22.5976 100.136 22.5976C102.051 22.5976 103.373 21.3617 103.373 19.5582ZM114.302 23.7796H113.741V30.9865H111.967V11.2843H113.68V12.8614H114.244C115.031 11.877 116.468 10.9178 118.804 10.9178C122.755 10.9178 125.08 14.1512 125.08 18.3187C125.08 22.4862 122.745 25.7232 118.804 25.7232C116.472 25.7232 115.092 24.7927 114.302 23.7796ZM113.741 18.3187C113.741 21.3042 115.121 24.146 118.581 24.146C121.649 24.146 123.309 21.782 123.309 18.3187C123.309 14.8554 121.649 12.495 118.581 12.495C115.117 12.495 113.741 15.3655 113.741 18.3187ZM136.936 23.7796H136.375C135.502 24.9077 133.86 25.7232 131.816 25.7232C128.493 25.7232 126.722 23.5676 126.722 21.1928C126.722 18.969 128.101 16.5763 131.985 16.5763H136.882V15.6996C136.882 13.9033 135.804 12.4914 133.081 12.4914C130.746 12.4914 129.535 13.4183 129.423 14.9129H127.649C127.875 12.3513 130.013 10.9142 133.081 10.9142C136.487 10.9142 138.653 12.6602 138.653 15.5847V25.3567H136.936V23.7796ZM136.882 19.727V18.0672H132.463C129.873 18.0672 128.511 19.2492 128.511 21.0491C128.511 23.0503 129.948 24.146 132.086 24.146C134.687 24.146 136.882 22.3173 136.882 19.727ZM142.81 30.9865L145.709 24.0346L139.745 11.2843H141.656L146.302 21.218H146.977L151.17 11.2843H153.027L144.613 30.9865H142.81Z" fill="white"/>
</g>
<defs>
<clipPath id="clip0_6510_526">
<rect width="153.097" height="30.9868" fill="white"/>
</clipPath>
</defs>
</svg>
