<svg width="123" height="22" viewBox="0 0 123 22" fill="none" xmlns="http://www.w3.org/2000/svg">
<path d="M79.8195 8.01118C77.7455 6.5626 75.2419 5.85469 72.3472 5.85469C69.4923 5.85469 66.9887 6.56382 64.9132 8.01118C62.8392 9.42814 61.7852 11.4006 61.7852 13.9274C61.7852 16.454 62.8392 18.4254 64.9132 19.8738C66.9872 21.2909 69.4923 22 72.3471 22C75.2419 22 77.7455 21.2909 79.8195 19.8738C81.9333 18.4254 82.9874 16.454 82.9874 13.9273C82.9874 11.4006 81.9319 9.42822 79.8195 8.01118ZM68.4368 17.162C67.3429 16.3307 66.7923 15.2513 66.7923 13.9274C66.7923 12.6023 67.3386 11.5241 68.4368 10.723C69.5306 9.89161 70.8237 9.49096 72.3457 9.49096C73.869 9.49096 75.2006 9.89161 76.296 10.723C77.4281 11.5241 77.9787 12.6023 77.9787 13.9274C77.9787 15.2524 77.4325 16.3307 76.2959 17.162C75.202 17.963 73.8706 18.3636 72.3457 18.3636C70.8237 18.3636 69.5336 17.9631 68.4368 17.162ZM90.3844 21.5676V0.424763H85.4556V21.5676H90.3844ZM106.294 6.28524V14.7212C106.294 16.7541 104.899 18.1014 102.244 18.1014C99.5438 18.1014 98.1857 16.7553 98.1857 14.7212V6.28524H93.2479V15.3685C93.2479 18.8873 96.0645 21.9985 102.244 21.9985H102.282C108.423 21.9985 111.235 18.8186 111.235 15.3685V6.28524H106.294ZM56.5382 6.28524L51.6092 16.6377L46.6803 6.28524H41.4384L49.3035 21.5677H53.9209L61.7844 6.28524H56.5382ZM41.4638 13.4954C41.4638 11.2772 40.5649 9.45959 38.804 8.01118C37.0427 6.5626 34.7768 5.85469 31.9987 5.85469C29.1438 5.85469 26.7169 6.6255 24.7211 8.13454C22.7638 9.6448 21.7881 11.5543 21.7881 13.9274C21.7881 16.3004 22.7652 18.2414 24.6828 19.7505C26.6402 21.2606 28.9873 22 31.7639 22C36.0301 22 39.0415 20.5213 40.8763 17.5323L37.2007 15.8684C35.9902 17.7477 34.2277 18.6721 31.8422 18.6721C28.9091 18.6721 26.8351 17.1935 26.5221 14.8519H41.4625V13.4954H41.4638ZM31.8393 8.81222C34.616 8.81222 36.4567 10.0441 36.9246 12.0166H26.5192C27.2646 10.199 29.2959 8.81222 31.8393 8.81222ZM21.7882 21.5678L15.175 12.4484C19.3584 11.2468 21.4324 9.15208 21.4324 6.10133C21.4369 2.37299 17.6785 0 11.6943 0H0V21.5678H5.16366V12.8175H9.54637L15.882 21.5678H21.7882ZM11.6943 3.57345C14.7455 3.57345 16.2719 4.52825 16.2719 6.40762C16.2719 8.28691 14.7441 9.24171 11.6943 9.24171H5.16366V3.57345H11.6943ZM119.591 21.9987C116.418 21.9987 113.846 19.9714 113.846 17.4691V2.15657H118.774V6.29119H123V9.43384H118.774V17.2201C118.774 17.9536 119.528 18.5474 120.461 18.5474H123V21.9987H119.591Z" fill="white"/>
</svg>
