<svg width="160" height="22" viewBox="0 0 160 22" fill="none" xmlns="http://www.w3.org/2000/svg">
<g clip-path="url(#clip0_6510_481)">
<path d="M56.5778 21.7799L54.5244 18.1132C55.4844 16.2157 55.4844 13.9791 55.4844 11.0366C55.4844 7.3699 55.4844 4.6199 53.4311 2.3924C52.7236 1.59626 51.8556 0.969518 50.8882 0.556196C49.9208 0.142874 48.8773 -0.047003 47.8311 -9.85418e-05C46.7878 -0.0238405 45.7511 0.176613 44.787 0.588511C43.8229 1.00041 42.9525 1.61473 42.2311 2.3924C40.1778 4.51907 40.1778 7.21407 40.1778 10.9999C40.1778 14.7857 40.0711 17.4166 42.2311 19.6349C42.9469 20.4243 43.8163 21.049 44.7822 21.4682C45.7483 21.8766 46.7878 22.0672 47.8311 22.0274C48.4149 22.0186 48.996 21.9448 49.5644 21.8074L56.5778 21.7799ZM45.1467 17.0591C44.4 16.1424 44.1867 15.1524 44.1867 10.9999C44.1867 6.8474 44.4444 5.8299 45.1467 4.94073C45.4884 4.58908 45.8929 4.30893 46.3378 4.11573C46.779 3.92189 47.2537 3.82211 47.7333 3.8224C48.2157 3.82312 48.6931 3.92284 49.1378 4.11573C49.58 4.30915 49.9815 4.58934 50.32 4.94073C51.0667 5.8574 51.28 6.8474 51.28 10.9999C51.28 15.1524 51.0667 16.1607 50.32 17.0591C49.9895 17.4206 49.59 17.7077 49.1467 17.9024C48.697 18.0857 48.2168 18.176 47.7333 18.1682C47.2517 18.1782 46.7734 18.0845 46.3289 17.8932C45.884 17.7008 45.4818 17.417 45.1467 17.0591Z" fill="white"/>
<path d="M103.849 0.219482H107.822V21.7795H103.849V0.219482Z" fill="white"/>
<path d="M7.54667 21.9999C4.44444 21.9999 2.06222 21.3307 0 19.1949L2.58667 16.4999C3.25497 17.1282 4.0374 17.6138 4.88874 17.9285C5.74009 18.2431 6.64346 18.3807 7.54667 18.3332C9.92 18.3332 11.2089 17.4165 11.2089 15.6382C11.2211 15.3072 11.1698 14.977 11.0578 14.6665C10.9492 14.3588 10.7797 14.0779 10.56 13.8415C10.0457 13.3858 9.40469 13.1099 8.72889 13.0532L6.22222 12.6957C4.73494 12.5652 3.33438 11.919 2.24889 10.8624C1.74969 10.2909 1.36323 9.62458 1.11111 8.9007C0.845752 8.16585 0.727815 7.3831 0.764444 6.59986C0.746667 2.80486 3.44 0.109863 8 0.109863C10.8 0.109863 12.96 0.769863 14.6933 2.5757L12.08 5.16986C11.5168 4.63233 10.8515 4.22119 10.1262 3.96242C9.40101 3.70365 8.6316 3.6029 7.86667 3.66653C5.70667 3.66653 4.64 4.9132 4.64 6.41653C4.65711 7.00018 4.88542 7.55609 5.28 7.97486C5.8387 8.45284 6.5105 8.76918 7.22667 8.89153L9.70667 9.22153C11.1884 9.26286 12.6033 9.86672 13.68 10.9174C14.2315 11.5343 14.6604 12.2568 14.9422 13.044C15.2179 13.8401 15.3417 14.6837 15.3067 15.5282C15.3067 19.6624 11.8667 22.0274 7.53778 22.0274" fill="white"/>
<path d="M21.1111 21.7795V0.219482H34.7911V3.88615H25.1911V8.97365H33.3689V12.8328H25.2V18.122H34.8V21.7887H21.1111" fill="white"/>
<path d="M69.1644 21.9995C64.9511 21.9995 61.5111 18.9745 61.5111 14.3728V0.219482H65.6267V14.2445C65.6267 16.7195 67.04 18.1678 69.1822 18.1678C71.3244 18.1678 72.7378 16.692 72.7378 14.2445V0.219482H76.7111V14.3545C76.7111 18.9378 73.4044 21.9811 69.1911 21.9811" fill="white"/>
<path d="M95.8755 19.6349C95.1672 20.4294 94.2989 21.0544 93.3315 21.4661C92.3641 21.8778 91.3211 22.0663 90.2755 22.0182C89.2336 22.0475 88.1974 21.8505 87.2341 21.4399C86.2709 21.0293 85.4022 20.4143 84.6844 19.6349C82.6667 17.4991 82.6667 14.8041 82.6667 10.9999C82.6667 7.19573 82.56 4.58323 84.7289 2.36489C85.4303 1.57753 86.2903 0.957872 87.2484 0.549337C88.2065 0.140802 89.2397 -0.0467254 90.2755 -0.000105317C91.3169 -0.0151643 92.3504 0.188354 93.3131 0.598075C94.2758 1.0078 95.1476 1.61516 95.8755 2.38323C97.9289 4.51906 97.9289 7.21406 97.9289 11.0182C97.9289 14.8224 97.9289 17.4166 95.8755 19.6349ZM92.8622 4.96823C92.5242 4.61652 92.122 4.33735 91.6788 4.14683C91.2356 3.95631 90.7602 3.85821 90.28 3.85821C89.7998 3.85821 89.3244 3.95631 88.8812 4.14683C88.438 4.33735 88.0358 4.61652 87.6978 4.96823C86.9422 5.88489 86.7378 6.87489 86.7378 11.0274C86.7378 15.1799 86.9422 16.1882 87.6978 17.0774C88.0346 17.4313 88.4364 17.7125 88.8797 17.9044C89.3231 18.0963 89.7991 18.1952 90.28 18.1952C90.7608 18.1952 91.2369 18.0963 91.6802 17.9044C92.1236 17.7125 92.5254 17.4313 92.8622 17.0774C93.6089 16.1607 93.8222 15.1799 93.8222 11.0274C93.8222 6.87489 93.6355 5.82989 92.8622 4.94073V4.96823Z" fill="white"/>
<path d="M126.916 21.7795L125.733 17.9662H118.4L117.12 21.7795H112.889L120.462 0.219482H123.556L131.102 21.7795H126.916ZM122.053 6.49865L119.467 14.3545H124.64L122.053 6.49865Z" fill="white"/>
<path d="M154.827 0.219482H160V5.60948H154.827V0.219482Z" fill="white"/>
<path d="M141.893 17.1411V0.219482H139.307V19.8636L141.893 17.1411Z" fill="white"/>
<path d="M143.707 19.085L141.12 21.78H160V19.085H143.707Z" fill="white"/>
<path d="M147.067 11.7786V0.219482H144.48V14.4736L147.067 11.7786Z" fill="white"/>
<path d="M148.88 13.6948L146.284 16.3898H160V13.6948H148.88Z" fill="white"/>
<path d="M152.231 6.41615V0.219482H149.644V9.08365L152.231 6.41615Z" fill="white"/>
<path d="M154.053 8.30444L151.476 10.9994H160V8.30444H154.053Z" fill="white"/>
</g>
<defs>
<clipPath id="clip0_6510_481">
<rect width="160" height="22" fill="white"/>
</clipPath>
</defs>
</svg>
