<svg width="50" height="50" viewBox="0 0 50 50" fill="none" xmlns="http://www.w3.org/2000/svg">
<rect y="50" width="50" height="50" rx="25" transform="rotate(-90 0 50)" fill="#212020"/>
<g clip-path="url(#clip0_155_99)">
<path d="M36.4991 25.3193C36.4991 19.0673 31.4626 14 25.2495 14C19.0365 14 14 19.0673 14 25.3193C14 30.9677 18.1139 35.6501 23.4916 36.4991V28.5906H20.6359V25.3184H23.4916V22.8253C23.4916 19.9879 25.1717 18.4211 27.7406 18.4211C28.9716 18.4211 30.2588 18.6419 30.2588 18.6419V21.4274H28.8412C27.4443 21.4274 27.0084 22.2999 27.0084 23.1951V25.3193H30.1285L29.6297 28.5916H27.0084V36.5C32.3861 35.651 36.5 30.9686 36.5 25.3193H36.4991Z" fill="#DEDDD7"/>
</g>
<defs>
<clipPath id="clip0_155_99">
<rect width="22.5" height="22.5" fill="white" transform="translate(14 14)"/>
</clipPath>
</defs>
</svg>
