<svg width="161" height="63" viewBox="0 0 161 63" fill="none" xmlns="http://www.w3.org/2000/svg">
<g filter="url(#filter0_f_6510_621)">
<rect x="8" y="55" width="47" height="145" rx="23.5" transform="rotate(-90 8 55)" fill="url(#paint0_linear_6510_621)"/>
</g>
<path d="M45.9992 31.0616C45.9992 25.5043 41.5223 21 35.9996 21C30.4769 21 26 25.5043 26 31.0616C26 36.0824 29.6568 40.2445 34.437 40.9992V33.9694H31.8986V31.0608H34.437V28.8447C34.437 26.3226 35.9304 24.9299 38.2138 24.9299C39.3081 24.9299 40.4523 25.1261 40.4523 25.1261V27.6021H39.1922C37.9505 27.6021 37.563 28.3777 37.563 29.1734V31.0616H40.3364L39.8931 33.9703H37.563V41C42.3432 40.2454 46 36.0832 46 31.0616H45.9992Z" fill="#FFFFFD"/>
<rect x="8.5" y="54.5" width="47" height="144" rx="23.5" transform="rotate(-90 8.5 54.5)" stroke="#FEDD82"/>
<g filter="url(#filter1_d_6510_621)">
<path d="M58.5466 35.968V36H54.9626V35.968C55.4586 34.912 55.6026 34.304 55.6026 32.88V27.408C55.6026 25.968 55.4586 25.376 54.9626 24.32V24.288H63.1066L63.7146 27.248L63.5546 27.28C62.7066 26.416 61.4106 24.704 60.6426 24.672L57.9066 24.544V29.776H59.3146C60.1146 29.776 60.8506 28.736 61.4426 28.128H61.5866V31.76H61.4426C60.8666 31.184 60.1306 30.128 59.3146 30.128H57.9066V32.88C57.9066 34.304 58.0506 34.912 58.5466 35.968ZM68.3057 35.136C68.7217 35.136 69.0897 34.992 69.3297 34.816V32.304C68.1297 32.592 67.1857 33.184 67.1857 34.112C67.1857 34.736 67.5857 35.136 68.3057 35.136ZM70.8817 36.208C69.9857 36.208 69.4897 35.728 69.3777 35.088C68.8977 35.696 68.0977 36.24 67.0897 36.24C66.1297 36.24 65.3457 35.776 65.3457 34.768C65.3457 33.104 67.5857 32.336 69.3297 32.016V30.608C69.3297 29.728 68.9617 29.232 67.8257 29.232C67.2177 29.232 66.4337 29.376 65.7297 29.824L65.6497 29.712C66.3697 28.8 67.5537 28.048 69.1057 28.048C70.7537 28.048 71.3777 28.928 71.3777 30.048V34.4C71.3777 34.784 71.5377 35.104 72.0337 35.104C72.2417 35.104 72.4817 35.04 72.7377 34.848L72.7697 34.896C72.5297 35.424 72.0177 36.208 70.8817 36.208ZM81.8469 33.968L81.9429 34.032C81.5269 35.36 80.4549 36.24 78.7909 36.24C76.5829 36.24 75.1109 34.688 75.1109 32.304C75.1109 29.824 77.0149 28.048 79.3509 28.048C80.4229 28.048 81.0949 28.288 81.4949 28.448L81.7029 30.464L81.5589 30.496C80.9029 29.408 79.9109 28.352 79.1109 28.352C77.9589 28.352 77.1429 29.552 77.1429 31.456C77.1429 33.648 78.2949 34.672 79.8469 34.672C80.6149 34.672 81.3989 34.448 81.8469 33.968ZM88.4483 28.336C87.4083 28.336 86.8643 29.536 86.7843 31.008L89.7283 30.944V30.576C89.7283 29.024 89.2803 28.336 88.4483 28.336ZM91.7603 33.792C91.3283 35.2 90.1923 36.24 88.4483 36.24C86.1923 36.24 84.7203 34.512 84.7203 32.288C84.7203 29.744 86.5603 28.048 88.5283 28.048C90.5763 28.048 91.8243 29.792 91.7603 31.296L86.7843 31.28V31.328C86.7843 33.728 87.9203 34.672 89.5043 34.672C90.5283 34.672 91.2323 34.256 91.6643 33.744L91.7603 33.792ZM98.5678 36.24C97.3678 36.24 96.4878 35.872 95.9118 35.44L95.0158 36.112H94.9198V26.736C94.9198 25.632 94.6318 24.992 94.1678 24.448V24.416L96.9678 23.552V29.36H96.9998C97.5118 28.72 98.3758 28.048 99.6078 28.048C101.512 28.048 102.696 29.68 102.696 32.032C102.696 34.368 101.352 36.24 98.5678 36.24ZM98.7278 35.952C99.8958 35.952 100.568 34.56 100.568 32.416C100.552 30.144 99.7518 29.2 98.4558 29.2C97.7838 29.2 97.2718 29.456 96.9678 29.712V33.232C96.9678 35.264 97.9278 35.952 98.7278 35.952ZM109.756 36.24C107.452 36.24 105.548 34.336 105.564 32.16C105.58 29.968 107.468 28.048 109.756 28.048C112.044 28.048 113.948 29.968 113.948 32.16C113.948 34.336 112.06 36.24 109.756 36.24ZM109.756 35.936C111.18 35.936 111.788 34.24 111.788 32.16C111.788 30.08 111.164 28.368 109.756 28.368C108.348 28.368 107.74 30.08 107.74 32.16C107.74 34.24 108.332 35.936 109.756 35.936ZM120.944 36.24C118.64 36.24 116.736 34.336 116.752 32.16C116.768 29.968 118.656 28.048 120.944 28.048C123.232 28.048 125.136 29.968 125.136 32.16C125.136 34.336 123.248 36.24 120.944 36.24ZM120.944 35.936C122.368 35.936 122.976 34.24 122.976 32.16C122.976 30.08 122.352 28.368 120.944 28.368C119.536 28.368 118.928 30.08 118.928 32.16C118.928 34.24 119.52 35.936 120.944 35.936ZM128.165 36V35.968C128.373 35.44 128.533 34.88 128.533 33.648V26.736C128.533 25.632 128.245 24.992 127.781 24.464V24.432L130.581 23.552V33.632C130.581 34.864 130.757 35.44 131.013 35.968V36H128.165ZM135.845 36H133.205L130.645 31.984L132.517 30.096C133.125 29.504 133.173 28.736 132.901 28.32V28.288H135.317V28.32C134.293 28.768 133.605 29.456 132.917 30.144L132.229 30.864L134.517 34.416C134.981 35.12 135.285 35.6 135.845 35.968V36Z" fill="#FFFFFD"/>
</g>
<defs>
<filter id="filter0_f_6510_621" x="0" y="0" width="161" height="63" filterUnits="userSpaceOnUse" color-interpolation-filters="sRGB">
<feFlood flood-opacity="0" result="BackgroundImageFix"/>
<feBlend mode="normal" in="SourceGraphic" in2="BackgroundImageFix" result="shape"/>
<feGaussianBlur stdDeviation="4" result="effect1_foregroundBlur_6510_621"/>
</filter>
<filter id="filter1_d_6510_621" x="51.9626" y="21.552" width="86.8824" height="18.688" filterUnits="userSpaceOnUse" color-interpolation-filters="sRGB">
<feFlood flood-opacity="0" result="BackgroundImageFix"/>
<feColorMatrix in="SourceAlpha" type="matrix" values="0 0 0 0 0 0 0 0 0 0 0 0 0 0 0 0 0 0 127 0" result="hardAlpha"/>
<feOffset dy="1"/>
<feGaussianBlur stdDeviation="1.5"/>
<feComposite in2="hardAlpha" operator="out"/>
<feColorMatrix type="matrix" values="0 0 0 0 0 0 0 0 0 0 0 0 0 0 0 0 0 0 0.25 0"/>
<feBlend mode="normal" in2="BackgroundImageFix" result="effect1_dropShadow_6510_621"/>
<feBlend mode="normal" in="SourceGraphic" in2="effect1_dropShadow_6510_621" result="shape"/>
</filter>
<linearGradient id="paint0_linear_6510_621" x1="31.5" y1="55" x2="115.643" y2="139.89" gradientUnits="userSpaceOnUse">
<stop stop-color="#FFD34D" stop-opacity="0.6"/>
<stop offset="1" stop-color="#FFD34D" stop-opacity="0"/>
</linearGradient>
</defs>
</svg>
