<svg width="50" height="50" viewBox="0 0 50 50" fill="none" xmlns="http://www.w3.org/2000/svg">
<rect y="50" width="50" height="50" rx="25" transform="rotate(-90 0 50)" fill="#212020"/>
<g clip-path="url(#clip0_155_112)">
<g clip-path="url(#clip1_155_112)">
<mask id="mask0_155_112" style="mask-type:luminance" maskUnits="userSpaceOnUse" x="14" y="14" width="23" height="23">
<path d="M20.5702 14.0736C22.1125 13.9868 23.6436 14.0008 25.1887 14.0008C26.731 14.0008 28.2621 13.9868 29.8071 14.0736C31.5986 14.1604 33.1856 14.5662 34.4984 15.879C35.8083 17.189 36.217 18.7788 36.3038 20.5702C36.3906 22.1125 36.3766 23.6436 36.3766 25.1887C36.3766 26.7338 36.3934 28.2649 36.3038 29.8071C36.217 31.5986 35.8111 33.1856 34.4984 34.4984C33.1884 35.8083 31.5986 36.217 29.8071 36.3038C28.2649 36.3905 26.7338 36.3766 25.1887 36.3766C23.6464 36.3766 22.1153 36.3905 20.5702 36.3038C18.7788 36.217 17.1918 35.8111 15.879 34.4984C14.569 33.1884 14.1604 31.5986 14.0736 29.8071C13.9868 28.2649 14.0008 26.731 14.0008 25.1887C14.0008 23.6464 13.9868 22.1153 14.0736 20.5702C14.1604 18.7788 14.5662 17.1918 15.879 15.879C17.189 14.569 18.7788 14.1604 20.5702 14.0736ZM25.1859 19.4478C22.009 19.4478 19.445 22.0118 19.445 25.1887C19.445 28.3656 22.009 30.9296 25.1859 30.9296C28.3628 30.9296 30.9268 28.3656 30.9268 25.1887C30.9268 22.0118 28.3628 19.4478 25.1859 19.4478ZM31.1619 17.8719C30.4201 17.8719 29.8211 18.4709 29.8211 19.2127C29.8211 19.9544 30.4201 20.5534 31.1619 20.5534C31.9037 20.5534 32.4999 19.9572 32.5027 19.2127C32.5027 18.4709 31.9037 17.8719 31.1619 17.8719Z" fill="white"/>
</mask>
<g mask="url(#mask0_155_112)">
<path d="M14 14H36.3778V36.3774H14V14Z" fill="#DEDDD7"/>
</g>
<path d="M25.1862 21.4575C27.2407 21.4575 28.9174 23.1342 28.9174 25.1887C28.9174 27.2432 27.2407 28.9198 25.1862 28.9198C23.1317 28.9198 21.4551 27.2432 21.4551 25.1887C21.4551 23.1342 23.1317 21.4575 25.1862 21.4575Z" fill="#DEDDD7"/>
</g>
</g>
<defs>
<clipPath id="clip0_155_112">
<rect width="22.5" height="22.5" fill="white" transform="translate(14 14)"/>
</clipPath>
<clipPath id="clip1_155_112">
<rect width="22.5" height="22.5" fill="white" transform="translate(14 14)"/>
</clipPath>
</defs>
</svg>
