<svg width="161" height="63" viewBox="0 0 161 63" fill="none" xmlns="http://www.w3.org/2000/svg">
<g filter="url(#filter0_f_6510_632)">
<rect x="8" y="55" width="47" height="145" rx="23.5" transform="rotate(-90 8 55)" fill="url(#paint0_linear_6510_632)"/>
</g>
<g clip-path="url(#clip0_6510_632)">
<mask id="mask0_6510_632" style="mask-type:luminance" maskUnits="userSpaceOnUse" x="23" y="21" width="21" height="20">
<path d="M29.3402 21.0654C30.7111 20.9883 32.0721 21.0007 33.4455 21.0007C34.8164 21.0007 36.1774 20.9883 37.5508 21.0654C39.1432 21.1426 40.5539 21.5033 41.7208 22.6702C42.8852 23.8346 43.2485 25.2479 43.3256 26.8402C43.4027 28.2111 43.3903 29.5721 43.3903 30.9455C43.3903 32.3189 43.4052 33.6799 43.3256 35.0508C43.2485 36.6432 42.8877 38.0539 41.7208 39.2208C40.5564 40.3852 39.1432 40.7484 37.5508 40.8256C36.1799 40.9027 34.8189 40.8903 33.4455 40.8903C32.0746 40.8903 30.7136 40.9027 29.3402 40.8256C27.7479 40.7484 26.3371 40.3877 25.1702 39.2208C24.0058 38.0564 23.6426 36.6432 23.5654 35.0508C23.4883 33.6799 23.5007 32.3164 23.5007 30.9455C23.5007 29.5746 23.4883 28.2136 23.5654 26.8402C23.6426 25.2479 24.0033 23.8371 25.1702 22.6702C26.3346 21.5058 27.7479 21.1426 29.3402 21.0654ZM33.443 25.8425C30.6191 25.8425 28.34 28.1216 28.34 30.9455C28.34 33.7694 30.6191 36.0485 33.443 36.0485C36.267 36.0485 38.546 33.7694 38.546 30.9455C38.546 28.1216 36.267 25.8425 33.443 25.8425ZM38.755 24.4417C38.0957 24.4417 37.5632 24.9742 37.5632 25.6335C37.5632 26.2928 38.0957 26.8253 38.755 26.8253C39.4144 26.8253 39.9443 26.2953 39.9468 25.6335C39.9468 24.9742 39.4144 24.4417 38.755 24.4417Z" fill="white"/>
</mask>
<g mask="url(#mask0_6510_632)">
<path d="M23.5 21H43.3914V40.891H23.5V21Z" fill="#FFFFFD"/>
</g>
<path d="M33.443 27.6289C35.2693 27.6289 36.7596 29.1193 36.7596 30.9455C36.7596 32.7717 35.2693 34.2621 33.443 34.2621C31.6168 34.2621 30.1265 32.7717 30.1265 30.9455C30.1265 29.1193 31.6168 27.6289 33.443 27.6289Z" fill="#FFFFFD"/>
</g>
<rect x="8.5" y="54.5" width="47" height="144" rx="23.5" transform="rotate(-90 8.5 54.5)" stroke="#FEDD82"/>
<g filter="url(#filter1_d_6510_632)">
<path d="M52.8844 36V35.968C53.3804 34.912 53.5244 34.32 53.5244 32.88V27.408C53.5244 25.968 53.3804 25.376 52.8844 24.32V24.288H56.4684V24.32C55.9724 25.376 55.8284 25.984 55.8284 27.392V32.88C55.8284 34.304 55.9724 34.912 56.4684 35.968V36H52.8844ZM62.5907 35.968V36H59.8067V35.968C60.0787 35.136 60.1747 34.416 60.1747 33.024V31.168C60.1747 30.064 59.8867 29.424 59.4227 28.88V28.848L62.1587 27.968V29.536L62.2227 29.552C62.7827 28.784 63.5827 28.048 64.8467 28.048C66.2867 28.048 67.1667 28.928 67.1667 30.32V33.008C67.1667 34.416 67.2307 35.136 67.5507 35.968V36H64.7507V35.968C65.0387 35.136 65.1187 34.352 65.1187 33.04V30.592C65.1187 29.792 64.7507 29.12 63.8227 29.12C63.1827 29.12 62.6067 29.456 62.2227 29.92V33.024C62.2227 34.384 62.2867 35.136 62.5907 35.968ZM75.7004 28.352L75.8764 30.208L75.7644 30.24C74.8524 28.848 74.0524 28.336 73.2844 28.336C72.5324 28.336 72.0364 28.816 72.0364 29.456C72.0364 30.368 73.0444 30.704 74.1004 31.152C75.2204 31.632 76.3724 32.256 76.3724 33.84C76.3724 35.52 74.9644 36.24 73.2364 36.24C72.3404 36.24 71.4444 36.048 70.7724 35.792L70.5804 33.648L70.6924 33.616C71.6044 35.184 72.4844 35.952 73.5244 35.952C74.4844 35.952 74.8524 35.328 74.8524 34.736C74.8524 33.888 74.1164 33.504 73.0604 33.04C71.9724 32.56 70.7084 31.984 70.7084 30.352C70.7084 28.656 72.1324 28.048 73.7164 28.048C74.4684 28.048 75.2204 28.192 75.7004 28.352ZM81.7517 36.24C80.6477 36.24 79.7677 35.728 79.7677 34.176V28.608H78.8877V28.496L81.6557 26.464H81.8157V28.288H83.8157V28.608H81.8157V34.112C81.8157 34.976 82.2477 35.344 82.9517 35.344C83.5117 35.344 83.8957 35.104 83.9437 35.072L83.9917 35.12C83.5917 35.744 82.8077 36.24 81.7517 36.24ZM89.6338 35.136C90.0498 35.136 90.4178 34.992 90.6578 34.816V32.304C89.4578 32.592 88.5138 33.184 88.5138 34.112C88.5138 34.736 88.9138 35.136 89.6338 35.136ZM92.2098 36.208C91.3138 36.208 90.8178 35.728 90.7058 35.088C90.2258 35.696 89.4258 36.24 88.4178 36.24C87.4578 36.24 86.6738 35.776 86.6738 34.768C86.6738 33.104 88.9138 32.336 90.6578 32.016V30.608C90.6578 29.728 90.2898 29.232 89.1538 29.232C88.5458 29.232 87.7618 29.376 87.0578 29.824L86.9778 29.712C87.6978 28.8 88.8818 28.048 90.4338 28.048C92.0818 28.048 92.7058 28.928 92.7058 30.048V34.4C92.7058 34.784 92.8658 35.104 93.3618 35.104C93.5698 35.104 93.8098 35.04 94.0658 34.848L94.0978 34.896C93.8578 35.424 93.3458 36.208 92.2098 36.208ZM100.099 33.264C100.995 33.264 101.347 32.272 101.347 30.816C101.347 29.328 101.011 28.336 100.083 28.336C99.1553 28.336 98.8673 29.328 98.8673 30.816C98.8673 32.272 99.2033 33.264 100.099 33.264ZM104.387 37.024C104.355 38.512 102.787 39.632 99.9233 39.632C97.7793 39.632 96.3073 38.992 96.3073 37.92C96.3073 37.136 97.0593 36.672 97.8593 36.496C97.2033 36.24 96.7873 35.808 96.7873 35.088C96.7873 34 97.6833 33.424 98.4993 33.2C97.5073 32.736 96.8673 31.84 96.8673 30.816C96.8673 29.248 98.2433 28.048 100.083 28.048C100.963 28.048 101.731 28.32 102.307 28.784L104.419 27.52L104.451 27.552V29.152H104.387L102.579 29.024C103.043 29.504 103.331 30.128 103.331 30.816C103.331 32.336 101.939 33.552 100.099 33.552C99.5873 33.552 99.1073 33.456 98.6913 33.296C98.3233 33.504 98.1793 33.76 98.1793 34.048C98.1793 34.608 98.6913 34.8 99.7153 34.848L101.235 34.896C103.075 34.976 104.419 35.648 104.387 37.024ZM100.531 39.136C102.259 39.136 103.171 38.608 103.171 37.856C103.171 37.12 102.371 36.88 101.027 36.832L99.3633 36.752C98.8833 36.736 98.4513 36.672 98.0833 36.56C97.9073 36.752 97.7473 37.056 97.7473 37.488C97.7473 38.592 98.8353 39.136 100.531 39.136ZM110.372 36H107.588V35.968C107.86 35.136 107.956 34.416 107.956 33.024V31.168C107.956 30.064 107.668 29.424 107.204 28.88V28.848L109.94 27.968V29.92H109.956C110.612 29.216 111.444 28 112.644 28.048L112.5 30.336H112.42C112.084 29.952 111.268 29.648 110.9 29.648C110.644 29.648 110.292 29.856 110.004 30.224V33.024C110.004 34.384 110.068 35.136 110.372 35.968V36ZM118.196 35.136C118.612 35.136 118.98 34.992 119.22 34.816V32.304C118.02 32.592 117.076 33.184 117.076 34.112C117.076 34.736 117.476 35.136 118.196 35.136ZM120.772 36.208C119.876 36.208 119.38 35.728 119.268 35.088C118.788 35.696 117.988 36.24 116.98 36.24C116.02 36.24 115.236 35.776 115.236 34.768C115.236 33.104 117.476 32.336 119.22 32.016V30.608C119.22 29.728 118.852 29.232 117.716 29.232C117.108 29.232 116.324 29.376 115.62 29.824L115.54 29.712C116.26 28.8 117.444 28.048 118.996 28.048C120.644 28.048 121.268 28.928 121.268 30.048V34.4C121.268 34.784 121.428 35.104 121.924 35.104C122.132 35.104 122.372 35.04 122.628 34.848L122.66 34.896C122.42 35.424 121.908 36.208 120.772 36.208ZM128.011 35.968V36H125.227V35.968C125.499 35.136 125.595 34.416 125.595 33.024V31.168C125.595 30.064 125.307 29.424 124.843 28.88V28.848L127.579 27.968V29.536L127.643 29.552C128.171 28.704 129.003 28.048 130.155 28.048C131.291 28.048 131.995 28.608 132.187 29.552H132.219C132.763 28.704 133.595 28.048 134.747 28.048C136.091 28.048 136.827 28.864 136.827 30.192V33.008C136.827 34.416 136.891 35.136 137.195 35.968V36H134.411V35.968C134.699 35.136 134.779 34.352 134.779 33.04V30.448C134.779 29.728 134.523 29.12 133.723 29.12C133.179 29.12 132.587 29.392 132.219 29.968V33.008C132.219 34.416 132.299 35.136 132.603 35.968V36H129.819V35.968C130.107 35.136 130.187 34.352 130.187 33.04V30.448C130.187 29.728 129.931 29.12 129.115 29.12C128.571 29.12 127.995 29.392 127.643 29.968V33.024C127.643 34.384 127.707 35.136 128.011 35.968Z" fill="#FFFFFD"/>
</g>
<defs>
<filter id="filter0_f_6510_632" x="0" y="0" width="161" height="63" filterUnits="userSpaceOnUse" color-interpolation-filters="sRGB">
<feFlood flood-opacity="0" result="BackgroundImageFix"/>
<feBlend mode="normal" in="SourceGraphic" in2="BackgroundImageFix" result="shape"/>
<feGaussianBlur stdDeviation="4" result="effect1_foregroundBlur_6510_632"/>
</filter>
<filter id="filter1_d_6510_632" x="49.8844" y="22.2881" width="90.311" height="21.344" filterUnits="userSpaceOnUse" color-interpolation-filters="sRGB">
<feFlood flood-opacity="0" result="BackgroundImageFix"/>
<feColorMatrix in="SourceAlpha" type="matrix" values="0 0 0 0 0 0 0 0 0 0 0 0 0 0 0 0 0 0 127 0" result="hardAlpha"/>
<feOffset dy="1"/>
<feGaussianBlur stdDeviation="1.5"/>
<feComposite in2="hardAlpha" operator="out"/>
<feColorMatrix type="matrix" values="0 0 0 0 0 0 0 0 0 0 0 0 0 0 0 0 0 0 0.25 0"/>
<feBlend mode="normal" in2="BackgroundImageFix" result="effect1_dropShadow_6510_632"/>
<feBlend mode="normal" in="SourceGraphic" in2="effect1_dropShadow_6510_632" result="shape"/>
</filter>
<linearGradient id="paint0_linear_6510_632" x1="31.5" y1="55" x2="115.643" y2="139.89" gradientUnits="userSpaceOnUse">
<stop stop-color="#FFD34D" stop-opacity="0.6"/>
<stop offset="1" stop-color="#FFD34D" stop-opacity="0"/>
</linearGradient>
<clipPath id="clip0_6510_632">
<rect width="20" height="20" fill="white" transform="translate(23.5 21)"/>
</clipPath>
</defs>
</svg>
