<svg width="50" height="50" viewBox="0 0 50 50" fill="none" xmlns="http://www.w3.org/2000/svg">
<rect y="50" width="50" height="50" rx="25" transform="rotate(-90 0 50)" fill="#212020"/>
<path d="M26.6898 24.4311C26.6898 27.9604 23.8482 30.8216 20.3429 30.8216C16.8375 30.8216 13.9961 27.9612 13.9961 24.4311C13.9961 20.9009 16.8377 18.0408 20.3429 18.0408C23.848 18.0408 26.6898 20.9018 26.6898 24.4311ZM33.6526 24.4311C33.6526 27.7535 32.2317 30.4466 30.4791 30.4466C28.7265 30.4466 27.3056 27.7526 27.3056 24.4311C27.3056 21.1095 28.7265 18.4156 30.4791 18.4156C32.2317 18.4156 33.6526 21.1095 33.6526 24.4311ZM36.5004 24.4311C36.5004 27.4078 36.0006 29.8207 35.3842 29.8207C34.7679 29.8207 34.2681 27.4069 34.2681 24.4311C34.2681 21.4552 34.7679 19.0414 35.3845 19.0414C36.001 19.0414 36.5004 21.4546 36.5004 24.4311Z" fill="#DEDDD7"/>
</svg>
