<svg width="161" height="63" viewBox="0 0 161 63" fill="none" xmlns="http://www.w3.org/2000/svg">
<g filter="url(#filter0_f_7813_44)">
<rect x="8" y="55" width="47" height="145" rx="23.5" transform="rotate(-90 8 55)" fill="url(#paint0_linear_7813_44)"/>
</g>
<path d="M44.2795 31.2721C44.2795 34.4092 41.7536 36.9525 38.6377 36.9525C35.5218 36.9525 32.9962 34.41 32.9962 31.2721C32.9962 28.1341 35.522 25.5918 38.6377 25.5918C41.7534 25.5918 44.2795 28.1349 44.2795 31.2721ZM50.4686 31.2721C50.4686 34.2253 49.2055 36.6192 47.6477 36.6192C46.0898 36.6192 44.8268 34.2246 44.8268 31.2721C44.8268 28.3196 46.0898 25.9249 47.6477 25.9249C49.2055 25.9249 50.4686 28.3196 50.4686 31.2721ZM53 31.2721C53 33.918 52.5557 36.0629 52.0078 36.0629C51.4599 36.0629 51.0157 33.9173 51.0157 31.2721C51.0157 28.6269 51.4599 26.4813 52.008 26.4813C52.5561 26.4813 53 28.6263 53 31.2721Z" fill="white"/>
<rect x="8.5" y="54.5" width="47" height="144" rx="23.5" transform="rotate(-90 8.5 54.5)" stroke="#FBC65F"/>
<g filter="url(#filter1_d_7813_44)">
<path d="M64.1256 36H61.4376V35.968C62.2376 34.816 62.4776 34.192 62.4776 32.688V26.672C62.4136 25.6 62.1096 25.104 61.3416 24.32V24.288H64.6056L68.4136 32.864L72.0936 24.288H75.2616V24.32C74.3976 25.2 74.1256 25.728 74.1256 27.12V32.88C74.1256 34.304 74.2856 34.912 74.7656 35.968V36H71.1816V35.968C71.6776 34.912 71.8216 34.304 71.8216 32.88V25.952L67.6296 35.648H67.2296L62.8456 25.904L62.8936 32.688C62.9096 34.176 63.1976 34.816 64.1256 35.968V36ZM81.4796 28.336C80.4396 28.336 79.8956 29.536 79.8156 31.008L82.7596 30.944V30.576C82.7596 29.024 82.3116 28.336 81.4796 28.336ZM84.7916 33.792C84.3596 35.2 83.2236 36.24 81.4796 36.24C79.2236 36.24 77.7516 34.512 77.7516 32.288C77.7516 29.744 79.5916 28.048 81.5596 28.048C83.6076 28.048 84.8556 29.792 84.7916 31.296L79.8156 31.28V31.328C79.8156 33.728 80.9516 34.672 82.5356 34.672C83.5596 34.672 84.2636 34.256 84.6956 33.744L84.7916 33.792ZM91.8014 35.056C92.5054 35.056 93.0654 34.752 93.4494 34.304V30.08C93.2254 28.8 92.5854 28.336 91.8814 28.336C90.6494 28.336 89.8494 29.664 89.8494 31.904C89.8494 33.904 90.5214 35.056 91.8014 35.056ZM93.5134 34.624H93.4814C93.0014 35.456 92.0894 36.24 90.7774 36.24C88.9214 36.24 87.7374 34.672 87.7374 32.496C87.7374 30.128 89.1774 28.048 91.9294 28.048C92.5214 28.048 93.0334 28.144 93.4494 28.288V26.752C93.4494 25.632 93.1614 24.992 92.6974 24.464V24.432L95.4974 23.552V32.608C95.4974 34.624 95.7374 35.04 96.2654 35.568V35.6L93.5134 36.208V34.624ZM101.816 25.488C101.816 26.128 101.288 26.64 100.648 26.64C100.008 26.64 99.4961 26.128 99.4961 25.488C99.4961 24.864 100.008 24.336 100.648 24.336C101.288 24.336 101.816 24.864 101.816 25.488ZM99.4001 36V35.968C99.6241 35.136 99.7841 34.384 99.7841 33.024V31.216C99.7841 30.128 99.4961 29.488 99.0161 28.944V28.848L101.816 27.968V33.024C101.816 34.368 101.896 35.136 102.184 35.968V36H99.4001ZM110.452 34.288C110.004 35.168 109.204 36.24 107.844 36.24C106.468 36.24 105.732 35.2 105.732 33.6V30.096C105.732 29.216 105.476 28.72 105.092 28.336V28.288H107.764V33.472C107.764 34.384 108.18 34.928 108.996 34.928C109.684 34.928 110.116 34.528 110.388 34V30.08C110.388 29.216 110.132 28.72 109.716 28.32V28.288H112.42V33.008C112.42 34.736 112.628 35.104 113.172 35.568V35.6L110.468 36.208V34.304L110.452 34.288ZM119.058 35.968V36H116.274V35.968C116.546 35.136 116.642 34.416 116.642 33.024V31.168C116.642 30.064 116.354 29.424 115.89 28.88V28.848L118.626 27.968V29.536L118.69 29.552C119.218 28.704 120.05 28.048 121.202 28.048C122.338 28.048 123.042 28.608 123.234 29.552H123.266C123.81 28.704 124.642 28.048 125.794 28.048C127.138 28.048 127.874 28.864 127.874 30.192V33.008C127.874 34.416 127.938 35.136 128.242 35.968V36H125.458V35.968C125.746 35.136 125.826 34.352 125.826 33.04V30.448C125.826 29.728 125.57 29.12 124.77 29.12C124.226 29.12 123.634 29.392 123.266 29.968V33.008C123.266 34.416 123.346 35.136 123.65 35.968V36H120.866V35.968C121.154 35.136 121.234 34.352 121.234 33.04V30.448C121.234 29.728 120.978 29.12 120.162 29.12C119.618 29.12 119.042 29.392 118.69 29.968V33.024C118.69 34.384 118.754 35.136 119.058 35.968Z" fill="#FFFFFD"/>
</g>
<defs>
<filter id="filter0_f_7813_44" x="0" y="0" width="161" height="63" filterUnits="userSpaceOnUse" color-interpolation-filters="sRGB">
<feFlood flood-opacity="0" result="BackgroundImageFix"/>
<feBlend mode="normal" in="SourceGraphic" in2="BackgroundImageFix" result="shape"/>
<feGaussianBlur stdDeviation="4" result="effect1_foregroundBlur_7813_44"/>
</filter>
<filter id="filter1_d_7813_44" x="58.3416" y="21.552" width="72.9008" height="18.688" filterUnits="userSpaceOnUse" color-interpolation-filters="sRGB">
<feFlood flood-opacity="0" result="BackgroundImageFix"/>
<feColorMatrix in="SourceAlpha" type="matrix" values="0 0 0 0 0 0 0 0 0 0 0 0 0 0 0 0 0 0 127 0" result="hardAlpha"/>
<feOffset dy="1"/>
<feGaussianBlur stdDeviation="1.5"/>
<feComposite in2="hardAlpha" operator="out"/>
<feColorMatrix type="matrix" values="0 0 0 0 0 0 0 0 0 0 0 0 0 0 0 0 0 0 0.25 0"/>
<feBlend mode="normal" in2="BackgroundImageFix" result="effect1_dropShadow_7813_44"/>
<feBlend mode="normal" in="SourceGraphic" in2="effect1_dropShadow_7813_44" result="shape"/>
</filter>
<linearGradient id="paint0_linear_7813_44" x1="31.5" y1="55" x2="115.643" y2="139.89" gradientUnits="userSpaceOnUse">
<stop stop-color="#FFD34D" stop-opacity="0.6"/>
<stop offset="1" stop-color="#FFD34D" stop-opacity="0"/>
</linearGradient>
</defs>
</svg>
