<svg width="50" height="50" viewBox="0 0 50 50" fill="none" xmlns="http://www.w3.org/2000/svg">
<rect y="50" width="50" height="50" rx="25" transform="rotate(-90 0 50)" fill="#212020"/>
<g clip-path="url(#clip0_155_105)">
<path d="M34.5969 23.3142C32.7512 23.3142 30.9561 22.7144 29.4795 21.6047V29.3457C29.4795 33.2986 26.4341 36.5 22.6768 36.5C18.9194 36.5 15.874 33.2986 15.874 29.3457C15.874 25.3928 18.9194 22.1914 22.6768 22.1914C23.0525 22.1914 23.4172 22.2244 23.7732 22.2859V26.386C23.4326 26.252 23.0701 26.1838 22.7053 26.1838C21.0288 26.1838 19.6687 27.6121 19.6687 29.3765C19.6687 31.1387 21.0288 32.5691 22.7053 32.5691C24.3796 32.5691 25.7397 31.1387 25.7397 29.3765V14H29.5344C29.5344 16.9553 31.813 19.3503 34.6233 19.3503V23.312L34.5969 23.3142Z" fill="#DEDDD7"/>
</g>
<defs>
<clipPath id="clip0_155_105">
<rect width="22.5" height="22.5" fill="white" transform="translate(14 14)"/>
</clipPath>
</defs>
</svg>
