<svg width="161" height="63" viewBox="0 0 161 63" fill="none" xmlns="http://www.w3.org/2000/svg">
<g filter="url(#filter0_f_6510_626)">
<rect x="8" y="55" width="47" height="145" rx="23.5" transform="rotate(-90 8 55)" fill="url(#paint0_linear_6510_626)"/>
</g>
<path d="M56.8086 29.2793C55.168 29.2793 53.5723 28.7461 52.2598 27.7598V34.6406C52.2598 38.1543 49.5527 41 46.2129 41C42.873 41 40.166 38.1543 40.166 34.6406C40.166 31.127 42.873 28.2812 46.2129 28.2812C46.5469 28.2812 46.8711 28.3105 47.1875 28.3652V32.0098C46.8848 31.8906 46.5625 31.8301 46.2383 31.8301C44.748 31.8301 43.5391 33.0996 43.5391 34.668C43.5391 36.2344 44.748 37.5059 46.2383 37.5059C47.7266 37.5059 48.9355 36.2344 48.9355 34.668V21H52.3086C52.3086 23.627 54.334 25.7559 56.832 25.7559V29.2773L56.8086 29.2793Z" fill="#FFFFFD"/>
<rect x="8.5" y="54.5" width="47" height="144" rx="23.5" transform="rotate(-90 8.5 54.5)" stroke="#FEDD82"/>
<g filter="url(#filter1_d_6510_626)">
<path d="M74.7488 35.968V36H71.1488V35.968C71.6448 34.912 71.8048 34.304 71.8048 32.88V24.576L70.4928 24.64C69.6768 24.704 68.3808 26.768 67.5328 27.984L67.3888 27.936L68.0448 24.288H77.8688L78.5248 27.936L78.3648 27.984C77.5328 26.768 76.2208 24.704 75.4048 24.64L74.1088 24.576V32.88C74.1088 34.304 74.2528 34.912 74.7488 35.968ZM83.8317 25.488C83.8317 26.128 83.3037 26.64 82.6637 26.64C82.0237 26.64 81.5117 26.128 81.5117 25.488C81.5117 24.864 82.0237 24.336 82.6637 24.336C83.3037 24.336 83.8317 24.864 83.8317 25.488ZM81.4157 36V35.968C81.6397 35.136 81.7997 34.384 81.7997 33.024V31.216C81.7997 30.128 81.5117 29.488 81.0317 28.944V28.848L83.8317 27.968V33.024C83.8317 34.368 83.9117 35.136 84.1997 35.968V36H81.4157ZM87.4931 36V35.968C87.7011 35.44 87.8611 34.88 87.8611 33.648V26.736C87.8611 25.632 87.5731 24.992 87.1091 24.464V24.432L89.9091 23.552V33.632C89.9091 34.864 90.0851 35.44 90.3411 35.968V36H87.4931ZM95.1731 36H92.5331L89.9731 31.984L91.8451 30.096C92.4531 29.504 92.5011 28.736 92.2291 28.32V28.288H94.6451V28.32C93.6211 28.768 92.9331 29.456 92.2451 30.144L91.5571 30.864L93.8451 34.416C94.3091 35.12 94.6131 35.6 95.1731 35.968V36ZM100.095 36.24C98.9914 36.24 98.1114 35.728 98.1114 34.176V28.608H97.2314V28.496L99.9994 26.464H100.159V28.288H102.159V28.608H100.159V34.112C100.159 34.976 100.591 35.344 101.295 35.344C101.855 35.344 102.239 35.104 102.287 35.072L102.335 35.12C101.935 35.744 101.151 36.24 100.095 36.24ZM109.037 36.24C106.733 36.24 104.829 34.336 104.845 32.16C104.861 29.968 106.749 28.048 109.037 28.048C111.325 28.048 113.229 29.968 113.229 32.16C113.229 34.336 111.341 36.24 109.037 36.24ZM109.037 35.936C110.461 35.936 111.069 34.24 111.069 32.16C111.069 30.08 110.445 28.368 109.037 28.368C107.629 28.368 107.021 30.08 107.021 32.16C107.021 34.24 107.613 35.936 109.037 35.936ZM116.259 36V35.968C116.467 35.44 116.627 34.88 116.627 33.648V26.736C116.627 25.632 116.339 24.992 115.875 24.464V24.432L118.675 23.552V33.632C118.675 34.864 118.851 35.44 119.107 35.968V36H116.259ZM123.939 36H121.299L118.739 31.984L120.611 30.096C121.219 29.504 121.267 28.736 120.995 28.32V28.288H123.411V28.32C122.387 28.768 121.699 29.456 121.011 30.144L120.323 30.864L122.611 34.416C123.075 35.12 123.379 35.6 123.939 35.968V36Z" fill="#FFFFFD"/>
</g>
<defs>
<filter id="filter0_f_6510_626" x="-1.90735e-06" y="0" width="161" height="63" filterUnits="userSpaceOnUse" color-interpolation-filters="sRGB">
<feFlood flood-opacity="0" result="BackgroundImageFix"/>
<feBlend mode="normal" in="SourceGraphic" in2="BackgroundImageFix" result="shape"/>
<feGaussianBlur stdDeviation="4" result="effect1_foregroundBlur_6510_626"/>
</filter>
<filter id="filter1_d_6510_626" x="64.3888" y="21.552" width="62.5499" height="18.688" filterUnits="userSpaceOnUse" color-interpolation-filters="sRGB">
<feFlood flood-opacity="0" result="BackgroundImageFix"/>
<feColorMatrix in="SourceAlpha" type="matrix" values="0 0 0 0 0 0 0 0 0 0 0 0 0 0 0 0 0 0 127 0" result="hardAlpha"/>
<feOffset dy="1"/>
<feGaussianBlur stdDeviation="1.5"/>
<feComposite in2="hardAlpha" operator="out"/>
<feColorMatrix type="matrix" values="0 0 0 0 0 0 0 0 0 0 0 0 0 0 0 0 0 0 0.25 0"/>
<feBlend mode="normal" in2="BackgroundImageFix" result="effect1_dropShadow_6510_626"/>
<feBlend mode="normal" in="SourceGraphic" in2="effect1_dropShadow_6510_626" result="shape"/>
</filter>
<linearGradient id="paint0_linear_6510_626" x1="31.5" y1="55" x2="115.643" y2="139.89" gradientUnits="userSpaceOnUse">
<stop stop-color="#FFD34D" stop-opacity="0.6"/>
<stop offset="1" stop-color="#FFD34D" stop-opacity="0"/>
</linearGradient>
</defs>
</svg>
