<svg width="161" height="63" viewBox="0 0 161 63" fill="none" xmlns="http://www.w3.org/2000/svg">
<g filter="url(#filter0_f_6510_613)">
<rect x="8" y="55" width="47" height="145" rx="23.5" transform="rotate(-90 8 55)" fill="url(#paint0_linear_6510_613)"/>
</g>
<rect x="8.5" y="54.5" width="47" height="144" rx="23.5" transform="rotate(-90 8.5 54.5)" stroke="#FEDD82"/>
<path fill-rule="evenodd" clip-rule="evenodd" d="M33.5 38.1852C35.2824 39.372 37.3568 40.002 39.4755 40C46.7128 40 50.8017 33.6657 50.5555 27.9847C51.3188 27.4135 51.9774 26.7054 52.5 25.8938C51.7888 26.2201 51.0344 26.4343 50.262 26.5291C51.0761 26.0246 51.6851 25.2304 51.9753 24.2946C51.2103 24.7652 50.3734 25.0969 49.5007 25.2756C49.1359 24.8723 48.695 24.551 48.2054 24.3316C47.7157 24.1121 47.1878 23.9993 46.6544 24C44.1388 24 42.2894 26.4331 42.8576 28.9597C39.6179 28.7916 36.7455 27.1839 34.8232 24.7388C33.8017 26.5551 34.2932 28.9307 36.0296 30.1317C35.4102 30.1119 34.8044 29.9389 34.2627 29.627C34.2212 31.4983 35.5155 33.2485 37.39 33.6387C36.816 33.8005 36.214 33.8242 35.6299 33.7077C35.8787 34.5104 36.3635 35.2123 37.0165 35.7152C37.6694 36.2182 38.4578 36.4969 39.2713 36.5125C37.6375 37.8406 35.5617 38.4423 33.5 38.1852Z" fill="#FFFFFD"/>
<g filter="url(#filter1_d_6510_613)">
<path d="M69.8623 35.968V36H66.2623V35.968C66.7583 34.912 66.9183 34.304 66.9183 32.88V24.576L65.6063 24.64C64.7903 24.704 63.4943 26.768 62.6463 27.984L62.5023 27.936L63.1583 24.288H72.9823L73.6383 27.936L73.4783 27.984C72.6463 26.768 71.3343 24.704 70.5183 24.64L69.2223 24.576V32.88C69.2223 34.304 69.3663 34.912 69.8623 35.968ZM77.9582 36.144L75.9422 30.432C75.5262 29.216 75.2542 28.752 74.8702 28.32V28.288H78.1822V28.32C77.9582 28.656 77.8622 29.488 78.1502 30.368L79.1262 33.376L80.2782 30.384C79.8622 29.12 79.5902 28.72 79.2222 28.32V28.288H82.4862V28.32C82.2622 28.656 82.1662 29.424 82.4702 30.368L83.3982 33.264L84.3742 30.672C84.8222 29.536 84.5182 28.672 84.2462 28.32V28.288H86.0862V28.32C85.5422 28.928 85.2062 29.376 84.7742 30.496L82.6782 36.144H82.2462L80.4222 30.816L78.3902 36.144H77.9582ZM91.1483 25.488C91.1483 26.128 90.6203 26.64 89.9803 26.64C89.3403 26.64 88.8283 26.128 88.8283 25.488C88.8283 24.864 89.3403 24.336 89.9803 24.336C90.6203 24.336 91.1483 24.864 91.1483 25.488ZM88.7323 36V35.968C88.9563 35.136 89.1163 34.384 89.1163 33.024V31.216C89.1163 30.128 88.8283 29.488 88.3483 28.944V28.848L91.1483 27.968V33.024C91.1483 34.368 91.2283 35.136 91.5163 35.968V36H88.7323ZM97.1777 36.24C96.0737 36.24 95.1937 35.728 95.1937 34.176V28.608H94.3137V28.496L97.0817 26.464H97.2417V28.288H99.2417V28.608H97.2417V34.112C97.2417 34.976 97.6737 35.344 98.3777 35.344C98.9377 35.344 99.3217 35.104 99.3697 35.072L99.4177 35.12C99.0177 35.744 98.2337 36.24 97.1777 36.24ZM104.521 36.24C103.417 36.24 102.537 35.728 102.537 34.176V28.608H101.657V28.496L104.425 26.464H104.585V28.288H106.585V28.608H104.585V34.112C104.585 34.976 105.017 35.344 105.721 35.344C106.281 35.344 106.665 35.104 106.713 35.072L106.761 35.12C106.361 35.744 105.577 36.24 104.521 36.24ZM112.999 28.336C111.959 28.336 111.415 29.536 111.335 31.008L114.279 30.944V30.576C114.279 29.024 113.831 28.336 112.999 28.336ZM116.311 33.792C115.879 35.2 114.743 36.24 112.999 36.24C110.743 36.24 109.271 34.512 109.271 32.288C109.271 29.744 111.111 28.048 113.079 28.048C115.127 28.048 116.375 29.792 116.311 31.296L111.335 31.28V31.328C111.335 33.728 112.471 34.672 114.055 34.672C115.079 34.672 115.783 34.256 116.215 33.744L116.311 33.792ZM122.251 36H119.467V35.968C119.739 35.136 119.835 34.416 119.835 33.024V31.168C119.835 30.064 119.547 29.424 119.083 28.88V28.848L121.819 27.968V29.92H121.835C122.491 29.216 123.323 28 124.523 28.048L124.379 30.336H124.299C123.963 29.952 123.147 29.648 122.779 29.648C122.523 29.648 122.171 29.856 121.883 30.224V33.024C121.883 34.384 121.947 35.136 122.251 35.968V36Z" fill="#FFFFFD"/>
</g>
<defs>
<filter id="filter0_f_6510_613" x="0" y="0" width="161" height="63" filterUnits="userSpaceOnUse" color-interpolation-filters="sRGB">
<feFlood flood-opacity="0" result="BackgroundImageFix"/>
<feBlend mode="normal" in="SourceGraphic" in2="BackgroundImageFix" result="shape"/>
<feGaussianBlur stdDeviation="4" result="effect1_foregroundBlur_6510_613"/>
</filter>
<filter id="filter1_d_6510_613" x="59.5023" y="22.2881" width="68.0208" height="17.9519" filterUnits="userSpaceOnUse" color-interpolation-filters="sRGB">
<feFlood flood-opacity="0" result="BackgroundImageFix"/>
<feColorMatrix in="SourceAlpha" type="matrix" values="0 0 0 0 0 0 0 0 0 0 0 0 0 0 0 0 0 0 127 0" result="hardAlpha"/>
<feOffset dy="1"/>
<feGaussianBlur stdDeviation="1.5"/>
<feComposite in2="hardAlpha" operator="out"/>
<feColorMatrix type="matrix" values="0 0 0 0 0 0 0 0 0 0 0 0 0 0 0 0 0 0 0.25 0"/>
<feBlend mode="normal" in2="BackgroundImageFix" result="effect1_dropShadow_6510_613"/>
<feBlend mode="normal" in="SourceGraphic" in2="effect1_dropShadow_6510_613" result="shape"/>
</filter>
<linearGradient id="paint0_linear_6510_613" x1="31.5" y1="55" x2="115.643" y2="139.89" gradientUnits="userSpaceOnUse">
<stop stop-color="#FFD34D" stop-opacity="0.6"/>
<stop offset="1" stop-color="#FFD34D" stop-opacity="0"/>
</linearGradient>
</defs>
</svg>
