<svg width="50" height="50" viewBox="0 0 50 50" fill="none" xmlns="http://www.w3.org/2000/svg">
<rect y="50" width="50" height="50" rx="25" transform="rotate(-90 0 50)" fill="#212020"/>
<path fill-rule="evenodd" clip-rule="evenodd" d="M14.5625 32.2084C16.5677 33.5435 18.9014 34.2523 21.2849 34.25C29.4269 34.25 34.0269 27.1239 33.7499 20.7328C34.6087 20.0902 35.3496 19.2936 35.9375 18.3806C35.1374 18.7477 34.2887 18.9886 33.4197 19.0952C34.3356 18.5277 35.0207 17.6342 35.3472 16.5815C34.4866 17.1108 33.5451 17.484 32.5633 17.685C32.1528 17.2313 31.6568 16.8698 31.106 16.623C30.5552 16.3762 29.9613 16.2492 29.3612 16.25C26.5312 16.25 24.4506 18.9872 25.0898 21.8296C21.4451 21.6405 18.2137 19.8319 16.0511 17.0812C14.9019 19.1245 15.4548 21.797 17.4083 23.1481C16.7115 23.1259 16.0299 22.9312 15.4206 22.5803C15.3739 24.6856 16.8299 26.6546 18.9387 27.0936C18.2931 27.2756 17.6157 27.3022 16.9586 27.1712C17.2385 28.0742 17.7839 28.8639 18.5185 29.4297C19.2531 29.9954 20.14 30.309 21.0552 30.3265C19.2172 31.8207 16.8819 32.4976 14.5625 32.2084Z" fill="#DEDDD7"/>
</svg>
