<svg width="22" height="22" viewBox="0 0 22 22" fill="none" xmlns="http://www.w3.org/2000/svg">
<path d="M4.3284 10.9993L4.33895 14.8679L7.62602 16.8021V19.067L2.41524 16.0108V9.86809L4.3284 10.9993ZM4.3284 7.13081V9.38511L2.41406 8.25268V5.99839L4.3284 4.86597L6.25211 5.99839L4.3284 7.13081ZM8.99876 5.99839L10.9131 4.86597L12.8368 5.99839L10.9131 7.13081L8.99876 5.99839Z" fill="#F0B90B"/>
<path d="M5.70898 14.0658V11.8009L7.62332 12.9334V15.1877L5.70898 14.0658ZM8.99606 17.6131L10.9104 18.7455L12.8341 17.6131V19.8674L10.9104 20.9998L8.99606 19.8674V17.6131ZM15.5796 5.99815L17.4939 4.86572L19.4176 5.99815V8.25244L17.4939 9.38486V7.13057L15.5796 5.99815ZM17.4939 14.8676L17.5045 10.9991L19.4188 9.86667V16.0094L14.208 19.0656V16.8007L17.4939 14.8676Z" fill="#F0B90B"/>
<path d="M16.1214 14.0676L14.207 15.1895V12.9352L16.1214 11.8027V14.0676Z" fill="#F0B90B"/>
<path d="M16.1212 7.93404L16.1317 10.1989L12.8353 12.1331V16.011L10.9209 17.1329L9.00661 16.011V12.1331L5.71016 10.1989V7.93404L7.6327 6.80161L10.9092 8.74525L14.2057 6.80161L16.1294 7.93404H16.1212ZM5.70898 4.06668L10.9104 1L16.1212 4.06668L14.2068 5.19911L10.9104 3.25547L7.62332 5.19911L5.70898 4.06668Z" fill="#F0B90B"/>
</svg>
