<svg width="24" height="24" viewBox="0 0 24 24" fill="none" xmlns="http://www.w3.org/2000/svg">
<path d="M10.8317 2.84658C11.412 2.06009 12.588 2.06009 13.1683 2.84658C13.9181 3.86275 15.2312 4.28941 16.4351 3.90802C17.3668 3.61284 18.3182 4.30405 18.3254 5.28143C18.3347 6.54424 19.1463 7.66126 20.3444 8.06033C21.2717 8.3692 21.6351 9.4876 21.0664 10.2825C20.3317 11.3096 20.3317 12.6904 21.0664 13.7175C21.6351 14.5124 21.2717 15.6308 20.3444 15.9397C19.1463 16.3387 18.3347 17.4558 18.3254 18.7186C18.3182 19.696 17.3668 20.3872 16.4351 20.092C15.2312 19.7106 13.9181 20.1373 13.1683 21.1534C12.588 21.9399 11.412 21.9399 10.8317 21.1534C10.0819 20.1373 8.76879 19.7106 7.56492 20.092C6.63315 20.3872 5.68178 19.696 5.67459 18.7186C5.66529 17.4558 4.85373 16.3387 3.6556 15.9397C2.72828 15.6308 2.36489 14.5124 2.93356 13.7175C3.66829 12.6904 3.66829 11.3096 2.93356 10.2825C2.36489 9.4876 2.72828 8.3692 3.6556 8.06033C4.85373 7.66126 5.66529 6.54424 5.67459 5.28143C5.68178 4.30405 6.63315 3.61284 7.56492 3.90802C8.76879 4.28941 10.0819 3.86275 10.8317 2.84658Z" stroke="#FBC65F" stroke-width="1.5"/>
<circle cx="11.9996" cy="11.9998" r="5.52692" stroke="#FBC65F" stroke-width="1.5"/>
<path fill-rule="evenodd" clip-rule="evenodd" d="M11.2454 8.19092C9.46637 8.53747 8.12354 10.1043 8.12354 11.9847C8.12354 14.1194 9.85404 15.8499 11.9887 15.8499C13.1479 15.8499 14.1878 15.3397 14.8963 14.5315C12.6369 14.2353 10.8927 12.3025 10.8927 9.96238C10.8927 9.33468 11.0181 8.73628 11.2454 8.19092Z" fill="#FBC65F"/>
</svg>
