<svg width="1390" height="83" viewBox="0 0 1390 83" fill="none" xmlns="http://www.w3.org/2000/svg">
<path d="M0 82H1390" stroke="url(#paint0_linear_6510_947)"/>
<path d="M586 82V41.0799C586 34.9202 589.536 29.3075 595.092 26.648L645.399 2.5681C647.556 1.53583 649.916 1 652.307 1H746.658C749.414 1 752.124 1.71206 754.524 3.06715L795.866 26.4078C800.892 29.2452 804 34.5693 804 40.3407V82" stroke="#FEDD82"/>
<path d="M622.31 33.306C623.15 32.1685 624.85 32.1685 625.69 33.306L626.4 34.2692C627.391 35.6117 629.126 36.1754 630.717 35.6716L631.858 35.3101C633.205 34.8831 634.581 35.8829 634.592 37.2965L634.601 38.4935C634.613 40.1619 635.685 41.6377 637.268 42.1649L638.404 42.5432C639.745 42.9899 640.271 44.6076 639.448 45.7574L638.752 46.7309C637.781 48.0879 637.781 49.9121 638.752 51.2691L639.448 52.2426C640.271 53.3924 639.745 55.0101 638.404 55.4568L637.268 55.8351C635.685 56.3623 634.613 57.8381 634.601 59.5065L634.592 60.7035C634.581 62.1171 633.205 63.1169 631.858 62.6899L630.717 62.3284C629.126 61.8246 627.391 62.3883 626.4 63.7308L625.69 64.694C624.85 65.8316 623.15 65.8316 622.31 64.694L621.6 63.7308C620.609 62.3883 618.874 61.8246 617.283 62.3284L616.142 62.6899C614.795 63.1169 613.419 62.1171 613.408 60.7035L613.399 59.5065C613.387 57.8381 612.315 56.3623 610.732 55.8351L609.596 55.4568C608.255 55.0101 607.729 53.3924 608.552 52.2426L609.248 51.2691C610.219 49.9121 610.219 48.0879 609.248 46.7309L608.552 45.7574C607.729 44.6076 608.255 42.9899 609.596 42.5432L610.732 42.1649C612.315 41.6377 613.387 40.1619 613.399 38.4935L613.408 37.2965C613.419 35.8829 614.795 34.8831 616.142 35.3101L617.283 35.6716C618.874 36.1754 620.609 35.6117 621.6 34.2692L622.31 33.306Z" stroke="#FFDE82" stroke-width="1.8"/>
<circle cx="624" cy="49" r="9.3" stroke="#FFDE82" stroke-width="1.8"/>
<path fill-rule="evenodd" clip-rule="evenodd" d="M622.773 42.8101C619.882 43.3731 617.7 45.9192 617.7 48.975C617.7 52.4439 620.512 55.2559 623.981 55.2559C625.864 55.2559 627.554 54.4269 628.706 53.1137C625.034 52.6323 622.2 49.4916 622.2 45.6889C622.2 44.6688 622.404 43.6963 622.773 42.8101Z" fill="#FFDE82"/>
<path d="M662.073 58.5539V58.6064H656.168V58.5539C656.982 56.8216 657.244 55.8243 657.244 53.4883V39.8662L655.092 39.9712C653.753 40.0762 651.627 43.4621 650.236 45.4568L650 45.3781L651.076 39.3938H667.192L668.268 45.3781L668.005 45.4568C666.64 43.4621 664.488 40.0762 663.15 39.9712L661.024 39.8662V53.4883C661.024 55.8243 661.26 56.8216 662.073 58.5539Z" fill="white"/>
<path d="M678.999 50.7849L676.164 43.1208L673.33 50.7849H678.999ZM673.093 58.5539V58.6064H668.946V58.5539C670.154 57.3466 670.81 55.9292 671.597 53.8558L677.03 39.2363H678.5L684.038 54.0657C684.852 56.2442 685.534 57.5303 686.453 58.5539V58.6064H680.049V58.5539C680.705 57.5828 680.862 55.8767 680.101 53.777L679.209 51.3623H673.12L672.595 52.7534C671.466 55.7718 672.148 57.609 673.093 58.5539Z" fill="white"/>
<path d="M696.492 39.945C696.15 39.945 695.521 39.945 694.759 39.9712V48.9476H696.518C699.668 48.9476 700.481 46.5592 700.481 44.0657C700.481 41.7035 699.563 39.945 696.492 39.945ZM689.93 58.6064V58.5539C690.744 56.8216 690.98 55.8243 690.98 53.4883V44.5119C690.98 42.1497 690.744 41.1786 689.93 39.4463V39.3938H697.305C702.45 39.3938 704.339 41.2573 704.339 44.0395C704.339 46.1655 703.237 48.0027 700.665 48.9214L703.71 54.9844C704.733 57.0316 705.284 57.7403 706.675 58.4489V58.6064H701.295L696.754 49.4988H694.759V53.4883C694.759 55.8243 694.996 56.8216 695.809 58.5539V58.6064H689.93Z" fill="white"/>
<path d="M746.229 58.5539V58.6064H740.323V58.5539C741.137 56.8216 741.399 55.8243 741.399 53.4883V39.8662L739.247 39.9712C737.908 40.0762 735.783 43.4621 734.391 45.4568L734.155 45.3781L735.231 39.3938H751.347L752.423 45.3781L752.16 45.4568C750.796 43.4621 748.643 40.0762 747.305 39.9712L745.179 39.8662V53.4883C745.179 55.8243 745.415 56.8216 746.229 58.5539Z" fill="white"/>
<path d="M757.154 58.6064V58.5539C757.968 56.8216 758.204 55.8243 758.204 53.4883V44.5119C758.204 42.1497 757.968 41.1786 757.154 39.4463V39.3938H764.031C769.832 39.3938 771.59 41.7823 771.59 44.6694C771.59 48.1077 769.07 50.7324 763.559 50.7324H761.984V53.4883C761.984 55.8243 762.194 56.8216 763.034 58.5539V58.6064H757.154ZM763.27 39.945C762.955 39.945 762.561 39.9712 761.984 39.9975V50.155H763.217C766.551 50.155 767.758 47.3466 767.758 44.6956C767.758 41.3623 765.999 39.945 763.27 39.945Z" fill="white"/>
<path d="M776.342 58.6064V58.5539C777.155 56.8216 777.391 55.8505 777.391 53.4883V44.5119C777.391 42.1497 777.155 41.1786 776.342 39.4463V39.3938H782.221V39.4463C781.407 41.1786 781.171 42.176 781.171 44.4857V53.4883C781.171 55.8243 781.407 56.8216 782.221 58.5539V58.6064H776.342Z" fill="white"/>
<path d="M719.645 59C714.344 59 709.619 54.6168 709.619 49.0262C709.619 43.4357 714.344 39 719.645 39C724.947 39 729.698 43.4357 729.698 49.0262C729.698 54.6168 724.947 59 719.645 59ZM719.645 58.4488C723.766 58.4488 725.551 54.4593 725.551 49.0262C725.551 43.5932 723.792 39.5512 719.645 39.5512C715.525 39.5512 713.766 43.6194 713.766 49.0262C713.766 54.4331 715.525 58.4488 719.645 58.4488Z" fill="#FFDE82"/>
<defs>
<linearGradient id="paint0_linear_6510_947" x1="1428" y1="82" x2="47.5115" y2="82" gradientUnits="userSpaceOnUse">
<stop stop-color="#FEDD82" stop-opacity="0"/>
<stop offset="0.546875" stop-color="#FEDD82"/>
<stop offset="1" stop-color="#FEDD82" stop-opacity="0"/>
</linearGradient>
</defs>
</svg>
