<svg width="16" height="16" viewBox="0 0 16 16" fill="none" xmlns="http://www.w3.org/2000/svg">
<rect x="1.5" y="1.5" width="13" height="13" rx="6.5" stroke="#9E9D9A"/>
<path d="M7.16797 11.1595C7.16797 11.6262 7.54131 11.9995 8.00798 11.9995C8.48131 11.9995 8.83464 11.6195 8.84131 11.1595C8.84131 10.6862 8.48131 10.3262 8.00798 10.3262C7.54131 10.3262 7.16797 10.6862 7.16797 11.1595Z" fill="#9E9D9A"/>
<path d="M8.76702 8.51333C9.02702 8.04 9.50703 7.80667 10.0137 7.06667C10.4671 6.39333 10.2937 5.49333 10.0004 5.01333C9.65369 4.44667 8.98036 4 7.99369 4C6.81369 4 6.00703 4.76667 5.70703 5.66L6.80702 6.12667C6.95369 5.67333 7.30036 5.14 8.00703 5.14C9.08703 5.14 9.30036 6.15333 8.92036 6.69333C8.56036 7.20667 7.94036 7.55333 7.61369 8.13333C7.35369 8.59333 7.40702 9.12667 7.40702 9.45333H8.62036C8.62036 8.83333 8.66036 8.70667 8.76702 8.51333Z" fill="#9E9D9A"/>
</svg>
