<svg width="52" height="52" viewBox="0 0 52 52" fill="none" xmlns="http://www.w3.org/2000/svg">
<path d="M22.5304 19.0415L23.1493 19.4684L23.3036 18.7325L26.7194 2.43715L30.1351 18.7325L30.2909 19.4757L30.9121 19.0389L39.4421 13.0415L34.1021 21.8511L33.7451 22.4399L34.4156 22.597L49.8088 26.2047L34.4156 29.8124L33.7391 29.9709L34.1043 30.562L39.4814 39.2654L30.9011 33.5677L30.291 33.1626L30.1359 33.8783L26.7194 49.6398L23.3029 33.8783L23.1492 33.1694L22.5414 33.5653L13.7268 39.306L19.1289 30.562L19.4998 29.9617L18.8105 29.8108L2.33808 26.2047L18.8105 22.5987L19.4937 22.4491L19.1311 21.8511L13.7637 12.9962L22.5304 19.0415Z" stroke="#E1C05E"/>
</svg>
