<svg width="118" height="66" viewBox="0 0 118 66" fill="none" xmlns="http://www.w3.org/2000/svg">
<g clip-path="url(#clip0_6510_231)">
<path d="M14.24 26.21L4.60999 35.81" stroke="#E1C05E" stroke-miterlimit="10" stroke-linecap="round" stroke-linejoin="round" stroke-dasharray="0.1 0.1"/>
<path d="M3.27997 48.9599L4.60997 35.8099" stroke="#E1C05E" stroke-miterlimit="10" stroke-linecap="round" stroke-linejoin="round" stroke-dasharray="0.1 0.1"/>
<path d="M2.64996 63.7799L2.99996 49.2799" stroke="#E1C05E" stroke-miterlimit="10" stroke-linecap="round" stroke-linejoin="round" stroke-dasharray="0.1 0.1"/>
<path d="M27.31 47.33L3.27997 48.96" stroke="#E1C05E" stroke-miterlimit="10" stroke-linecap="round" stroke-linejoin="round" stroke-dasharray="0.1 0.1"/>
<path d="M85.5699 2.08997L64.4299 26.33" stroke="#E1C05E" stroke-miterlimit="10" stroke-linecap="round" stroke-linejoin="round" stroke-dasharray="0.1 0.1"/>
<path d="M41.1 46.32L64.43 26.33" stroke="#E1C05E" stroke-miterlimit="10" stroke-linecap="round" stroke-linejoin="round" stroke-dasharray="0.1 0.1"/>
<path d="M111.07 13.2099L85.83 1.79993" stroke="#E1C05E" stroke-miterlimit="10" stroke-linecap="round" stroke-linejoin="round" stroke-dasharray="0.1 0.1"/>
<path d="M114.04 26.4199L111.53 14.2399" stroke="#E1C05E" stroke-miterlimit="10" stroke-linecap="round" stroke-linejoin="round" stroke-dasharray="0.1 0.1"/>
<path d="M96.4 38.9799L114.61 26.9099" stroke="#E1C05E" stroke-miterlimit="10" stroke-linecap="round" stroke-linejoin="round" stroke-dasharray="0.1 0.1"/>
<path d="M41.0999 46.3199L27.3099 47.3299" stroke="#E1C05E" stroke-miterlimit="10" stroke-linecap="round" stroke-linejoin="round" stroke-dasharray="0.1 0.1"/>
<path d="M1.01997 47.55C0.0699725 48.64 0.179972 50.3 1.26997 51.26C2.36997 52.21 4.02997 52.1 4.97997 51C5.92997 49.91 5.81997 48.25 4.72997 47.29C3.63997 46.35 1.97997 46.46 1.01997 47.55Z" fill="#E1C05E" stroke="#E1C05E" stroke-width="0.75" stroke-miterlimit="10"/>
<path d="M112.63 25.18C111.68 26.27 111.79 27.93 112.88 28.89C113.97 29.84 115.63 29.73 116.59 28.64C117.54 27.55 117.43 25.89 116.34 24.93C115.24 23.98 113.58 24.09 112.63 25.18Z" fill="#E1C05E" stroke="#E1C05E" stroke-width="0.75" stroke-miterlimit="10"/>
<path d="M62.45 24.6C61.5 25.69 61.61 27.35 62.7 28.31C63.79 29.26 65.45 29.15 66.41 28.06C67.36 26.97 67.25 25.31 66.16 24.35C65.06 23.39 63.4 23.51 62.45 24.6Z" fill="#E1C05E" stroke="#E1C05E" stroke-width="0.75" stroke-miterlimit="10"/>
<path d="M1.28998 62.6C0.639984 63.35 0.709984 64.49 1.45998 65.14C2.20998 65.79 3.34998 65.72 3.99998 64.97C4.64998 64.22 4.57998 63.08 3.82998 62.43C3.07998 61.77 1.93998 61.85 1.28998 62.6Z" fill="#E1C05E"/>
<path d="M3.24995 34.63C2.59995 35.38 2.66995 36.52 3.41995 37.17C4.16995 37.82 5.30995 37.75 5.95995 37C6.60995 36.25 6.53995 35.11 5.78995 34.46C5.03995 33.8 3.89995 33.88 3.24995 34.63Z" fill="#E1C05E"/>
<path d="M12.88 25.03C12.23 25.78 12.3 26.92 13.05 27.57C13.8 28.22 14.9399 28.15 15.59 27.4C16.24 26.65 16.17 25.51 15.42 24.86C14.67 24.2 13.53 24.28 12.88 25.03Z" fill="#E1C05E"/>
<path d="M39.7499 45.14C39.0999 45.89 39.1699 47.03 39.9199 47.68C40.6699 48.33 41.8099 48.26 42.4599 47.51C43.1099 46.76 43.0399 45.62 42.2899 44.97C41.5399 44.31 40.3999 44.39 39.7499 45.14Z" fill="#E1C05E"/>
<path d="M95.05 37.8C94.4 38.55 94.47 39.69 95.22 40.34C95.97 40.99 97.11 40.92 97.76 40.17C98.41 39.42 98.34 38.28 97.59 37.63C96.84 36.97 95.7 37.05 95.05 37.8Z" fill="#E1C05E"/>
<path d="M109.72 12.03C109.07 12.78 109.14 13.92 109.89 14.57C110.64 15.22 111.78 15.15 112.43 14.4C113.08 13.65 113.01 12.51 112.26 11.86C111.51 11.2 110.37 11.28 109.72 12.03Z" fill="#E1C05E"/>
<path d="M84.47 0.619975C83.82 1.36997 83.89 2.50997 84.64 3.15997C85.39 3.80997 86.53 3.73997 87.18 2.98997C87.83 2.23997 87.76 1.09997 87.01 0.449975C86.26 -0.210025 85.13 -0.130025 84.47 0.619975Z" fill="#E1C05E"/>
</g>
<defs>
<clipPath id="clip0_6510_231">
<rect width="117.61" height="65.58" fill="white"/>
</clipPath>
</defs>
</svg>
