<svg width="14" height="14" viewBox="0 0 14 14" fill="none" xmlns="http://www.w3.org/2000/svg">
<g id="icon-copy" clip-path="url(#clip0_528_1648)">
<path id="Icon" d="M9.33366 9.33341V10.9667C9.33366 11.6201 9.33366 11.9468 9.2065 12.1964C9.09465 12.4159 8.91617 12.5944 8.69665 12.7063C8.44708 12.8334 8.12039 12.8334 7.46699 12.8334H3.03366C2.38026 12.8334 2.05357 12.8334 1.804 12.7063C1.58448 12.5944 1.406 12.4159 1.29415 12.1964C1.16699 11.9468 1.16699 11.6201 1.16699 10.9667V6.53341C1.16699 5.88002 1.16699 5.55332 1.29415 5.30376C1.406 5.08424 1.58448 4.90576 1.804 4.79391C2.05357 4.66675 2.38026 4.66675 3.03366 4.66675H4.66699M6.53366 9.33341H10.967C11.6204 9.33341 11.9471 9.33341 12.1966 9.20626C12.4162 9.0944 12.5946 8.91593 12.7065 8.6964C12.8337 8.44684 12.8337 8.12014 12.8337 7.46675V3.03341C12.8337 2.38002 12.8337 2.05332 12.7065 1.80376C12.5946 1.58424 12.4162 1.40576 12.1966 1.29391C11.9471 1.16675 11.6204 1.16675 10.967 1.16675H6.53366C5.88026 1.16675 5.55357 1.16675 5.304 1.29391C5.08448 1.40576 4.906 1.58424 4.79415 1.80376C4.66699 2.05332 4.66699 2.38002 4.66699 3.03341V7.46675C4.66699 8.12014 4.66699 8.44684 4.79415 8.6964C4.906 8.91593 5.08448 9.0944 5.304 9.20626C5.55357 9.33341 5.88026 9.33341 6.53366 9.33341Z" stroke="#9E9D9A" stroke-width="1.5" stroke-linecap="round" stroke-linejoin="round"/>
</g>
<defs>
<clipPath id="clip0_528_1648">
<rect width="14" height="14" fill="white"/>
</clipPath>
</defs>
</svg>
