<svg width="51" height="15" viewBox="0 0 51 15" fill="none" xmlns="http://www.w3.org/2000/svg">
<g clip-path="url(#clip0_6510_457)">
<path d="M41.1828 13.1901C43.1985 13.1322 45.2431 12.7847 46.9542 11.7278C48.6653 10.6708 49.9559 8.80305 49.9124 6.80498C49.8544 4.64765 48.2448 2.75093 46.2727 1.86772C44.3005 0.984519 42.0384 0.97004 39.9067 1.27409C29.06 2.82332 20.9539 12.0753 10.1217 13.7837C8.00455 14.1168 5.17686 13.9141 3.45124 12.6399C1.05857 10.859 0.304522 6.8629 2.03014 4.43046C3.75576 1.99803 7.48252 1.07139 10.4697 1.18722C13.4569 1.30305 16.2991 2.47583 18.9673 3.82236C26.4788 7.61579 32.1342 13.4507 41.1828 13.1901Z" stroke="#A6903A" stroke-width="1.5" stroke-miterlimit="10" stroke-linecap="round" stroke-linejoin="round"/>
</g>
<defs>
<clipPath id="clip0_6510_457">
<rect width="51" height="15" fill="white" transform="matrix(-1 -8.74228e-08 -8.74228e-08 1 51 0)"/>
</clipPath>
</defs>
</svg>
