<svg width="108" height="112" viewBox="0 0 108 112" fill="none" xmlns="http://www.w3.org/2000/svg">
<g filter="url(#filter0_d_6510_204)">
<ellipse cx="54.3448" cy="55.7241" rx="12.4138" ry="12.4138" fill="#FFDE82"/>
<path d="M54 24V39.8621" stroke="#FFDE82"/>
<path d="M65.0345 30.8965L60.2069 40.8965" stroke="#FFDE82"/>
<path d="M74.6896 34.6897L64.6896 44.3449" stroke="#FFDE82"/>
<path d="M77.4483 45.3794L68.4828 49.1725" stroke="#FFDE82"/>
<path d="M84 55.3794H69.1724" stroke="#FFDE82"/>
<path d="M54 87.1035V71.2414" stroke="#FFDE82"/>
<path d="M65.0345 80.2068L60.2069 70.2068" stroke="#FFDE82"/>
<path d="M74.6896 76.4138L64.6896 66.7586" stroke="#FFDE82"/>
<path d="M77.4483 65.7241L68.4828 61.931" stroke="#FFDE82"/>
<path d="M84 55.7241H69.1724" stroke="#FFDE82"/>
<path d="M54 24V39.8621" stroke="#FFDE82"/>
<path d="M42.9655 30.8965L47.7931 40.8965" stroke="#FFDE82"/>
<path d="M33.3104 34.6897L43.3104 44.3449" stroke="#FFDE82"/>
<path d="M30.5517 45.3794L39.5172 49.1725" stroke="#FFDE82"/>
<path d="M24 55.3794H38.8276" stroke="#FFDE82"/>
<path d="M54 87.1035V71.2414" stroke="#FFDE82"/>
<path d="M42.9655 80.2068L47.7931 70.2068" stroke="#FFDE82"/>
<path d="M33.3104 76.4138L43.3104 66.7586" stroke="#FFDE82"/>
<path d="M30.5517 65.7241L39.5172 61.931" stroke="#FFDE82"/>
<path d="M24 55.7241H38.8276" stroke="#FFDE82"/>
</g>
<defs>
<filter id="filter0_d_6510_204" x="0" y="0" width="108" height="111.104" filterUnits="userSpaceOnUse" color-interpolation-filters="sRGB">
<feFlood flood-opacity="0" result="BackgroundImageFix"/>
<feColorMatrix in="SourceAlpha" type="matrix" values="0 0 0 0 0 0 0 0 0 0 0 0 0 0 0 0 0 0 127 0" result="hardAlpha"/>
<feOffset/>
<feGaussianBlur stdDeviation="12"/>
<feComposite in2="hardAlpha" operator="out"/>
<feColorMatrix type="matrix" values="0 0 0 0 1 0 0 0 0 0.827451 0 0 0 0 0.301961 0 0 0 1 0"/>
<feBlend mode="normal" in2="BackgroundImageFix" result="effect1_dropShadow_6510_204"/>
<feBlend mode="normal" in="SourceGraphic" in2="effect1_dropShadow_6510_204" result="shape"/>
</filter>
</defs>
</svg>
