<svg width="36" height="36" viewBox="0 0 36 36" fill="none" xmlns="http://www.w3.org/2000/svg">
<path d="M16.3102 2.30602C17.1496 1.16845 18.8504 1.16845 19.6898 2.30602L20.4005 3.2692C21.3911 4.61174 23.126 5.17544 24.7165 4.67156L25.8576 4.31006C27.2053 3.88311 28.5814 4.88287 28.5918 6.29654L28.6006 7.4935C28.6129 9.1619 29.6851 10.6377 31.268 11.1649L32.4037 11.5432C33.745 11.9899 34.2706 13.6076 33.448 14.7574L32.7516 15.7309C31.7809 17.0879 31.7809 18.9121 32.7516 20.2691L33.448 21.2426C34.2706 22.3924 33.745 24.0101 32.4037 24.4568L31.268 24.8351C29.6851 25.3623 28.6129 26.8381 28.6006 28.5065L28.5918 29.7035C28.5814 31.1171 27.2053 32.1169 25.8576 31.6899L24.7165 31.3284C23.126 30.8246 21.3911 31.3883 20.4005 32.7308L19.6898 33.694C18.8504 34.8316 17.1496 34.8316 16.3102 33.694L15.5995 32.7308C14.6089 31.3883 12.874 30.8246 11.2835 31.3284L10.1424 31.6899C8.79469 32.1169 7.41864 31.1171 7.40823 29.7035L7.39942 28.5065C7.38713 26.8381 6.31491 25.3623 4.73196 24.8351L3.59632 24.4568C2.25505 24.0101 1.72944 22.3924 2.55196 21.2426L3.24838 20.2691C4.2191 18.9121 4.21911 17.0879 3.24838 15.7309L2.55196 14.7574C1.72944 13.6076 2.25505 11.9899 3.59631 11.5432L4.73196 11.1649C6.31491 10.6377 7.38713 9.1619 7.39942 7.4935L7.40823 6.29654C7.41864 4.88287 8.79469 3.88311 10.1424 4.31006L11.2835 4.67156C12.874 5.17544 14.6089 4.61174 15.5995 3.2692L16.3102 2.30602Z" stroke="#FFDE82" stroke-width="1.8"/>
<circle cx="18" cy="18" r="9.3" stroke="#FFDE82" stroke-width="1.8"/>
<path fill-rule="evenodd" clip-rule="evenodd" d="M16.7733 11.8101C13.8822 12.3731 11.7 14.9192 11.7 17.975C11.7 21.4439 14.512 24.2559 17.9809 24.2559C19.8644 24.2559 21.5543 23.4269 22.7055 22.1137C19.0342 21.6323 16.2 18.4916 16.2 14.6889C16.2 13.6688 16.4039 12.6963 16.7733 11.8101Z" fill="#FFDE82"/>
</svg>
