<svg width="375" height="52" viewBox="0 0 375 52" fill="none" xmlns="http://www.w3.org/2000/svg">
<path d="M0 51H375" stroke="url(#paint0_linear_6568_664)" stroke-width="0.617284"/>
<path d="M119.729 51V25.7407C119.729 21.9384 121.911 18.4737 125.341 16.8321L156.395 1.96796C157.726 1.33076 159.183 1 160.659 1H218.9C220.602 1 222.274 1.43954 223.756 2.27602L249.276 16.6838C252.378 18.4353 254.297 21.7218 254.297 25.2844V51" stroke="#FEDD82" stroke-width="0.617284"/>
<path d="M142.143 20.942C142.661 20.2398 143.711 20.2398 144.229 20.942L144.667 21.5366C145.279 22.3653 146.35 22.7133 147.332 22.4023L148.036 22.1791C148.868 21.9156 149.717 22.5327 149.724 23.4053L149.729 24.1442C149.737 25.1741 150.399 26.0851 151.376 26.4105L152.077 26.644C152.905 26.9198 153.229 27.9183 152.721 28.6281L152.292 29.229C151.692 30.0667 151.692 31.1927 152.292 32.0304L152.721 32.6313C153.229 33.3411 152.905 34.3396 152.077 34.6154L151.376 34.8489C150.399 35.1743 149.737 36.0853 149.729 37.1152L149.724 37.854C149.717 38.7267 148.868 39.3438 148.036 39.0803L147.332 38.8571C146.35 38.5461 145.279 38.894 144.667 39.7228L144.229 40.3173C143.711 41.0195 142.661 41.0195 142.143 40.3173L141.704 39.7228C141.092 38.894 140.021 38.5461 139.04 38.8571L138.335 39.0803L138.503 39.6099L138.335 39.0803C137.503 39.3438 136.654 38.7267 136.647 37.854L136.642 37.1152C136.634 36.0853 135.973 35.1743 134.995 34.8489L134.294 34.6154C133.466 34.3396 133.142 33.3411 133.65 32.6313L134.08 32.0304C134.679 31.1927 134.679 30.0667 134.08 29.229L133.65 28.6281C133.142 27.9183 133.466 26.9198 134.294 26.644L134.995 26.4105C135.973 26.0851 136.634 25.1741 136.642 24.1442L136.647 23.4053C136.654 22.5327 137.503 21.9156 138.335 22.1791L139.04 22.4023C140.021 22.7133 141.092 22.3653 141.704 21.5366L142.143 20.942Z" stroke="#FFDE82" stroke-width="1.11111"/>
<circle cx="143.185" cy="30.6297" r="5.74074" stroke="#FFDE82" stroke-width="1.11111"/>
<path fill-rule="evenodd" clip-rule="evenodd" d="M142.427 26.8086C140.643 27.1563 139.296 28.7279 139.296 30.614C139.296 32.7553 141.032 34.4912 143.173 34.4912C144.336 34.4912 145.379 33.9794 146.089 33.1689C143.823 32.8719 142.073 30.9331 142.073 28.5857C142.073 27.956 142.199 27.3557 142.427 26.8086Z" fill="#FFDE82"/>
<path d="M166.688 36.5271V36.5595H163.043V36.5271C163.545 35.4578 163.707 34.8421 163.707 33.4002V24.9915L162.379 25.0563C161.552 25.1211 160.24 27.2111 159.381 28.4425L159.236 28.3939L159.9 24.6999H169.848L170.512 28.3939L170.35 28.4425C169.507 27.2111 168.179 25.1211 167.353 25.0563L166.04 24.9915V33.4002C166.04 34.8421 166.186 35.4578 166.688 36.5271Z" fill="white"/>
<path d="M177.136 31.7314L175.386 27.0005L173.637 31.7314H177.136ZM173.491 36.5271V36.5595H170.931V36.5271C171.676 35.7818 172.081 34.9069 172.567 33.627L175.921 24.6027H176.828L180.247 33.7566C180.749 35.1013 181.17 35.8952 181.737 36.5271V36.5595H177.784V36.5271C178.189 35.9276 178.286 34.8745 177.817 33.5784L177.266 32.0878H173.507L173.183 32.9465C172.486 34.8097 172.907 35.9438 173.491 36.5271Z" fill="white"/>
<path d="M187.934 25.0401C187.724 25.0401 187.335 25.0401 186.865 25.0563V30.5973H187.95C189.895 30.5973 190.397 29.1229 190.397 27.5838C190.397 26.1256 189.83 25.0401 187.934 25.0401ZM183.884 36.5595V36.5271C184.386 35.4578 184.532 34.8421 184.532 33.4002V27.8592C184.532 26.401 184.386 25.8016 183.884 24.7323V24.6999H188.436C191.612 24.6999 192.778 25.8502 192.778 27.5676C192.778 28.8799 192.098 30.014 190.51 30.5811L192.39 34.3237C193.021 35.5874 193.362 36.0248 194.22 36.4623V36.5595H190.899L188.096 30.9375H186.865V33.4002C186.865 34.8421 187.011 35.4578 187.513 36.5271V36.5595H183.884Z" fill="white"/>
<path d="M218.636 36.5271V36.5595H214.991V36.5271C215.493 35.4578 215.655 34.8421 215.655 33.4002V24.9915L214.326 25.0563C213.5 25.1211 212.188 27.2111 211.329 28.4425L211.183 28.3939L211.848 24.6999H221.795L222.46 28.3939L222.298 28.4425C221.455 27.2111 220.127 25.1211 219.3 25.0563L217.988 24.9915V33.4002C217.988 34.8421 218.134 35.4578 218.636 36.5271Z" fill="white"/>
<path d="M225.38 36.5595V36.5271C225.882 35.4578 226.028 34.8421 226.028 33.4002V27.8592C226.028 26.401 225.882 25.8016 225.38 24.7323V24.6999H229.625C233.206 24.6999 234.291 26.1742 234.291 27.9564C234.291 30.0788 232.736 31.699 229.333 31.699H228.361V33.4002C228.361 34.8421 228.491 35.4578 229.009 36.5271V36.5595H225.38ZM229.155 25.0401C228.961 25.0401 228.718 25.0563 228.361 25.0725V31.3426H229.123C231.18 31.3426 231.926 29.609 231.926 27.9726C231.926 25.915 230.84 25.0401 229.155 25.0401Z" fill="white"/>
<path d="M237.224 36.5595V36.5271C237.726 35.4578 237.872 34.8583 237.872 33.4002V27.8592C237.872 26.401 237.726 25.8016 237.224 24.7323V24.6999H240.853V24.7323C240.351 25.8016 240.205 26.4172 240.205 27.843V33.4002C240.205 34.8421 240.351 35.4578 240.853 36.5271V36.5595H237.224Z" fill="white"/>
<path d="M202.226 36.8025C198.954 36.8025 196.037 34.0968 196.037 30.6458C196.037 27.1949 198.954 24.4568 202.226 24.4568C205.499 24.4568 208.432 27.1949 208.432 30.6458C208.432 34.0968 205.499 36.8025 202.226 36.8025ZM202.226 36.4622C204.77 36.4622 205.872 33.9996 205.872 30.6458C205.872 27.2921 204.786 24.797 202.226 24.797C199.683 24.797 198.597 27.3083 198.597 30.6458C198.597 33.9834 199.683 36.4622 202.226 36.4622Z" fill="#FFDE82"/>
<defs>
<linearGradient id="paint0_linear_6568_664" x1="385.252" y1="51" x2="12.8178" y2="51" gradientUnits="userSpaceOnUse">
<stop stop-color="#FEDD82" stop-opacity="0"/>
<stop offset="0.546875" stop-color="#FEDD82"/>
<stop offset="1" stop-color="#FEDD82" stop-opacity="0"/>
</linearGradient>
</defs>
</svg>
