<svg width="181" height="36" viewBox="0 0 181 36" fill="none" xmlns="http://www.w3.org/2000/svg">
<path d="M16.3102 2.30602C17.1496 1.16845 18.8504 1.16845 19.6898 2.30602L20.4005 3.2692C21.3911 4.61174 23.126 5.17544 24.7165 4.67156L25.8576 4.31006C27.2053 3.88311 28.5814 4.88287 28.5918 6.29654L28.6006 7.4935C28.6129 9.1619 29.6851 10.6377 31.268 11.1649L32.4037 11.5432C33.745 11.9899 34.2706 13.6076 33.448 14.7574L32.7516 15.7309C31.7809 17.0879 31.7809 18.9121 32.7516 20.2691L33.448 21.2426C34.2706 22.3924 33.745 24.0101 32.4037 24.4568L31.268 24.8351C29.6851 25.3623 28.6129 26.8381 28.6006 28.5065L28.5918 29.7035C28.5814 31.1171 27.2053 32.1169 25.8576 31.6899L24.7165 31.3284C23.126 30.8246 21.3911 31.3883 20.4005 32.7308L19.6898 33.694C18.8504 34.8316 17.1496 34.8316 16.3102 33.694L15.5995 32.7308C14.6089 31.3883 12.874 30.8246 11.2835 31.3284L10.1424 31.6899C8.79469 32.1169 7.41864 31.1171 7.40823 29.7035L7.39942 28.5065C7.38713 26.8381 6.31491 25.3623 4.73196 24.8351L3.59632 24.4568C2.25505 24.0101 1.72944 22.3924 2.55196 21.2426L3.24838 20.2691C4.2191 18.9121 4.21911 17.0879 3.24838 15.7309L2.55196 14.7574C1.72944 13.6076 2.25505 11.9899 3.59631 11.5432L4.73196 11.1649C6.31491 10.6377 7.38713 9.1619 7.39942 7.4935L7.40823 6.29654C7.41864 4.88287 8.79469 3.88311 10.1424 4.31006L11.2835 4.67156C12.874 5.17544 14.6089 4.61174 15.5995 3.2692L16.3102 2.30602Z" stroke="#FFDE82" stroke-width="1.8"/>
<circle cx="18" cy="18" r="9.3" stroke="#FFDE82" stroke-width="1.8"/>
<path fill-rule="evenodd" clip-rule="evenodd" d="M16.7733 11.8101C13.8822 12.3731 11.7 14.9192 11.7 17.975C11.7 21.4439 14.512 24.2559 17.9809 24.2559C19.8644 24.2559 21.5543 23.4269 22.7055 22.1137C19.0342 21.6323 16.2 18.4916 16.2 14.6889C16.2 13.6688 16.4039 12.6963 16.7733 11.8101Z" fill="#FFDE82"/>
<path d="M56.0735 27.5539V27.6064H50.168V27.5539C50.9816 25.8216 51.2441 24.8243 51.2441 22.4883V8.86625L49.0919 8.97124C47.7533 9.07622 45.6273 12.4621 44.2362 14.4568L44 14.3781L45.0761 8.39381H61.1916L62.2677 14.3781L62.0052 14.4568C60.6404 12.4621 58.4882 9.07622 57.1496 8.97124L55.0236 8.86625V22.4883C55.0236 24.8243 55.2598 25.8216 56.0735 27.5539Z" fill="white"/>
<path d="M72.9988 19.7849L70.1642 12.1208L67.3295 19.7849H72.9988ZM67.0933 27.5539V27.6064H62.9463V27.5539C64.1537 26.3466 64.8098 24.9292 65.5972 22.8558L71.0303 8.23633H72.5001L78.0382 23.0657C78.8518 25.2442 79.5342 26.5303 80.4529 27.5539V27.6064H74.0487V27.5539C74.7048 26.5828 74.8623 24.8767 74.1012 22.777L73.2088 20.3623H67.1195L66.5946 21.7534C65.466 24.7718 66.1484 26.609 67.0933 27.5539Z" fill="white"/>
<path d="M90.4917 8.94499C90.1505 8.94499 89.5206 8.94499 88.7594 8.97124V17.9476H90.5179C93.6675 17.9476 94.4812 15.5592 94.4812 13.0657C94.4812 10.7035 93.5626 8.94499 90.4917 8.94499ZM83.93 27.6064V27.5539C84.7437 25.8216 84.9799 24.8243 84.9799 22.4883V13.5119C84.9799 11.1497 84.7437 10.1786 83.93 8.4463V8.39381H91.3053C96.4497 8.39381 98.3395 10.2573 98.3395 13.0395C98.3395 15.1655 97.2371 17.0027 94.6649 17.9214L97.7095 23.9844C98.7332 26.0316 99.2843 26.7403 100.675 27.4489V27.6064H95.2948L90.7542 18.4988H88.7594V22.4883C88.7594 24.8243 88.9956 25.8216 89.8093 27.5539V27.6064H83.93Z" fill="white"/>
<path d="M140.229 27.5539V27.6064H134.323V27.5539C135.137 25.8216 135.399 24.8243 135.399 22.4883V8.86625L133.247 8.97124C131.908 9.07622 129.783 12.4621 128.391 14.4568L128.155 14.3781L129.231 8.39381H145.347L146.423 14.3781L146.16 14.4568C144.796 12.4621 142.643 9.07622 141.305 8.97124L139.179 8.86625V22.4883C139.179 24.8243 139.415 25.8216 140.229 27.5539Z" fill="white"/>
<path d="M151.154 27.6064V27.5539C151.968 25.8216 152.204 24.8243 152.204 22.4883V13.5119C152.204 11.1497 151.968 10.1786 151.154 8.4463V8.39381H158.031C163.832 8.39381 165.59 10.7823 165.59 13.6694C165.59 17.1077 163.07 19.7324 157.559 19.7324H155.984V22.4883C155.984 24.8243 156.194 25.8216 157.034 27.5539V27.6064H151.154ZM157.27 8.94499C156.955 8.94499 156.561 8.97124 155.984 8.99748V19.155H157.217C160.551 19.155 161.758 16.3466 161.758 13.6956C161.758 10.3623 159.999 8.94499 157.27 8.94499Z" fill="white"/>
<path d="M170.342 27.6064V27.5539C171.155 25.8216 171.391 24.8505 171.391 22.4883V13.5119C171.391 11.1497 171.155 10.1786 170.342 8.4463V8.39381H176.221V8.4463C175.407 10.1786 175.171 11.176 175.171 13.4857V22.4883C175.171 24.8243 175.407 25.8216 176.221 27.5539V27.6064H170.342Z" fill="white"/>
<path d="M113.645 28C108.344 28 103.619 23.6168 103.619 18.0262C103.619 12.4357 108.344 8 113.645 8C118.947 8 123.698 12.4357 123.698 18.0262C123.698 23.6168 118.947 28 113.645 28ZM113.645 27.4488C117.766 27.4488 119.551 23.4593 119.551 18.0262C119.551 12.5932 117.792 8.55118 113.645 8.55118C109.525 8.55118 107.766 12.6194 107.766 18.0262C107.766 23.4331 109.525 27.4488 113.645 27.4488Z" fill="#FFDE82"/>
</svg>
